<svg xmlns="http://www.w3.org/2000/svg" xmlns:xlink="http://www.w3.org/1999/xlink" width="243" height="42" viewBox="0 0 243 42"><defs><path id="a" d="M768.538 2725.41a.235.235 0 0 1 .198.004.23.23 0 0 1 .123.154c0 .119-.128.143-.192.214a.483.483 0 0 1-.265-.127c-.048-.135.064-.182.136-.246zm1.762-1.467c.127 0 .254.032.293.143.04.111 0 .285-.11.285a.19.19 0 0 1-.262 0c-.127-.047-.166-.166-.127-.27.04-.102.135-.11.206-.158zm.396.69c.127-.04.277.04.277.11 0 .072.087.128 0 .199a1.19 1.19 0 0 1-.308.182c-.08.024-.12-.11-.167-.11-.047-.143-.008-.381.167-.381zm-.82 0a.324.324 0 0 1 .48.158c0 .097-.037.19-.104.262a.226.226 0 0 1-.304.055c-.097-.016-.089-.079-.169-.19-.08-.11.056-.182.096-.285zm.218-2.33c.167-.166.404-.032.515.119a.372.372 0 0 1-.237.325c-.127.04-.167-.016-.293-.12-.127-.102-.056-.221 0-.324zm7.23-1.323c.143 0 .389.11.349.206-.04.095-.08.237-.206.222-.127-.016-.261.007-.317-.151-.055-.159.064-.238.174-.277zm-6.264 1.83a.32.32 0 0 1-.182-.257c.072-.072.056-.192.198-.192.143 0 .325 0 .357.136a.344.344 0 0 1-.254.305h-.134zm.69 2.006c0 .103.087.199 0 .27h-.056a3.127 3.127 0 0 1-.99-1.712.103.103 0 0 1-.055-.136c.134-.127.23.128.372.168l.38.422c.205.291.331.632.364.988zm2.66-4.558a.412.412 0 0 1 .198 0c-.317.476-.594 1.054-1.164 1.268-.095 0-.174.135-.261.04a2.567 2.567 0 0 1 1.203-1.204zm-.024 3.376c.072.056.167.127.167.222-.214.095-.396-.15-.602-.198a2.86 2.86 0 0 1-.72-1.11c.126-.126.26.024.371.072.345.267.617.615.792 1.014zm-.142-1.585c-.11.032-.222-.023-.261-.095-.04-.071-.103-.222 0-.293a.277.277 0 0 1 .475 0 .317.317 0 0 1-.198.365zm.55-.964a.36.36 0 0 1 .362.224c.016.113-.113.193-.169.241a.345.345 0 0 1-.433-.217.361.361 0 0 1 .24-.248zm1.367.132c-.28.325-.511.69-.959.753-.072-.135.096-.277.168-.404.146-.47.465-.87.895-1.117l.072.087c-.128.174-.072.444-.2.634zm-1.521 1.237c.095-.016.166.07.261.11a.357.357 0 0 1 0 .31.284.284 0 0 1-.388.079c-.11-.08-.15-.222-.11-.325.039-.103.166-.174.26-.174zm2.463-.793a.333.333 0 0 1 .324.19c.024.095-.07.143-.07.206a.388.388 0 0 1-.318.064c-.126-.072-.206-.254-.126-.31.079-.055.095-.15.19-.15zm-30.505 4.229l-.004-.006a.147.147 0 0 1 .004-.018zm-.004-.006c-.015.085.076.09.076.163.19.308.079.75.19 1.096-.238.024-.333-.237-.483-.37a4.28 4.28 0 0 1-.396-1.459.072.072 0 0 1 .095 0c.192.171.366.362.518.57zm30.168-4.406a.33.33 0 0 1-.34-.056c-.12-.112-.072-.233.055-.297.127-.064.404-.056.404.113a.298.298 0 0 1-.119.24zm-9.352 6.142a1.965 1.965 0 0 1 1.06-1.26c.223.032 0 .183.048.302-.198.507-.72.776-1.077 1.164v-.206zm1.853-.697a.285.285 0 0 1 .317.15c0 .127-.12.183-.19.254a.412.412 0 0 1-.301-.158c-.016-.135.095-.175.174-.246zm-1.41-1.656c.127-.016.254.103.31.19.055.087-.009.15-.088.23-.08.079-.23.04-.325 0a.222.222 0 0 1-.071-.285c.024-.08.11-.151.174-.151zm1.481 1.347c-.15.048-.396-.048-.412-.182-.016-.135.135-.206.206-.278a.293.293 0 0 1 .333.19.34.34 0 0 1-.127.27zm-.395-2.116c-.44.086-.895.028-1.3-.166.008-.135.15-.072.213-.135a2.889 2.889 0 0 1 1.402-.071.157.157 0 0 1 .181 0 .788.788 0 0 1-.496.364zm-21.596-1.11a1.805 1.805 0 0 1-1.956.254.103.103 0 0 1 .063-.127 2.865 2.865 0 0 1 1.22-.261zm-2.542 1.538a.3.3 0 0 1-.27-.103.317.317 0 0 1-.047-.277c.032-.072.127-.08.198-.127.14.017.261.107.317.238a.5.5 0 0 1-.198.269zm31.428-2.694c.322.202.612.45.86.737v.11a1.901 1.901 0 0 1-1.378-.522c-.095-.072-.263-.072-.366-.175.215-.174.55-.119.796-.119.152-.198-.239-.332 0-.499.08-.016.136-.071.247-.071a.477.477 0 0 1 .207.19c.056.166-.151.277-.207.293-.056.016-.151-.024-.151.056zm-6.515 3.28c.435.277.725.733.792 1.245 0 .04-.008.095-.079.095h-.048a1.649 1.649 0 0 1-.744-1.324h.055zm.713-3.621c.11-.206.507-.166.507.04.031.07-.064.15-.064.221a.27.27 0 0 1-.308.056c-.064-.095-.135-.182-.135-.317zm-24.858 1.057c.016.105.04.281-.095.353a.269.269 0 0 1-.333-.176c-.07-.169.056-.257.167-.28.11-.025.174.031.261.103zm-1.41 3.31a15.64 15.64 0 0 1 1.157-1.134c.025.421-.159.827-.491 1.086-.222.047-.444.253-.666.11zm.046-2.79c-.465.29-.89.856-1.473.99-.11.039-.173.196-.315.11a2.024 2.024 0 0 1 1.788-1.211zm31.688-9.446a.298.298 0 0 1 .32-.167c.07.038.134.083.193.135.048.143-.08.206-.176.293a.316.316 0 0 1-.265-.04c-.016-.07-.072-.126-.072-.221zm.299.666c.055-.056.087-.127.166-.127a.27.27 0 0 1 .333.206.34.34 0 0 1-.333.238c-.118-.056-.261-.151-.166-.317zm-.206-4.43c-.08-.017-.206-.049-.206-.169a.233.233 0 0 1 .127-.225.235.235 0 0 1 .202-.013.24.24 0 0 1 .138.15.343.343 0 0 1-.26.257zm-.89-.579c.115.03.215.1.28.198a.373.373 0 0 1-.184.262.283.283 0 0 1-.304-.071c-.056-.024-.056-.135-.056-.206a.449.449 0 0 1 .264-.183zm-1.066 5.002c.467-.502.72-1.291 1.45-1.475a.449.449 0 0 1 .372-.056 3.455 3.455 0 0 1-1.68 1.595c-.055 0-.142.072-.142 0zm3.031.74c.024.201-.22.097-.315.153a2.157 2.157 0 0 1-1.869-.128c.04-.177.245-.105.355-.177.591-.385 1.19.113 1.782.113zm-.79 1.215c-.095.096-.284-.088-.284.096a.448.448 0 0 1 .189.28c-.024.04-.165 0-.165 0a1.74 1.74 0 0 1-.984-.871c-.055-.128-.315-.224-.166-.336.38.028.726.228.945.543.134-.008.165-.207.315-.207a.344.344 0 0 1 .33.151c.056.176-.07.256-.18.328zm-.65-1.885a.467.467 0 0 1-.237.222c-.11.024-.206-.064-.261-.119-.055-.056 0-.174 0-.246a.277.277 0 0 1 .515.143zm1.521 1.426c-.07.143-.293.143-.404.072-.11-.072-.11-.135-.11-.246a.42.42 0 0 1 .205-.182.356.356 0 0 1 .317.095.206.206 0 0 1 0 .261zm.014.801a.377.377 0 0 1-.336-.128c-.065-.08 0-.169 0-.265a.345.345 0 0 1 .368-.096.617.617 0 0 1 .169.136.337.337 0 0 1-.2.353zm-1.978-6.506a.317.317 0 0 1 .333-.167c.095.056.238.04.206.167-.032.126-.016.261-.15.348a.404.404 0 0 1-.333-.055.254.254 0 0 1-.056-.293zm-2.011-.753a.27.27 0 0 1-.333-.167c-.023-.15.103-.269.206-.293.103-.024.238.032.238.103 0 .072.055.198 0 .246-.056.047-.143.055-.143.11zm.538.119a6.64 6.64 0 0 1 1.212-1.585h.11a1.767 1.767 0 0 1-.854 1.498c-.15.055-.317.214-.468.118zm.895-2.956c-.071-.072-.182-.072-.182-.168a.321.321 0 0 1 .198-.33c.111-.023.166.017.261.073.096.056.072.208 0 .28-.07.073-.166.185-.293.145zm-.103 1.133a1.386 1.386 0 0 1-.855.793.633.633 0 0 1-.317.182c-.023-.293.222-.547.373-.793a2.04 2.04 0 0 1 1.116-.729c-.008.183-.317.365-.317.547zm-.792-.975a.253.253 0 0 1-.316-.198.325.325 0 0 1 .206-.333.374.374 0 0 1 .332.111c0 .15.008.373-.166.373zm.432-.1c.152-.089.393.031.377.168-.016.136-.072.337-.209.337a.248.248 0 0 1-.32-.169.297.297 0 0 1 .152-.337zm.867-1.017a.356.356 0 0 1-.348-.158.317.317 0 0 1 .166-.357.348.348 0 0 1 .356.143c.088.15-.063.3-.174.372zm-1.797 4.813c.07-.208.316-.208.49-.208.373.056.721.45 1.165.45v.128c-.352.2-.786.177-1.117-.057a6.21 6.21 0 0 0-.554-.313zm.91-.391a.277.277 0 0 1 .15-.262.3.3 0 0 1 .317.111c.016.135-.11.238-.19.317a.23.23 0 0 1-.277-.166zm1.212-3.606a.357.357 0 0 1-.15-.23.388.388 0 0 1 .197-.206.46.46 0 0 1 .293.135.38.38 0 0 1 0 .23.317.317 0 0 1-.372.119zm-1.181-.097c-.16-.016-.16-.213-.16-.323a2.06 2.06 0 0 1-.249-1.743c.208.031.112.252.208.347.41.476.51 1.14.257 1.711zm2.915 7.681c-.08-.08-.206-.143-.206-.254 0-.11.064-.174.206-.23.143-.055.198.08.309.08.08.127.008.222-.055.325a.198.198 0 0 1-.254.079zm-37.6 2.092c-.221.317-.633.317-1.013.412l-.048-.11a3.509 3.509 0 0 1 1.394-1.166c.04.111-.071.15-.071.238-.067.216-.168.42-.301.602zm-1.393-2.401a.23.23 0 0 1-.293-.119.246.246 0 0 1 .182-.309c.095.056.34.198.277.246-.063.047-.008.19-.135.19zm.435.008a.325.325 0 0 1 .23-.27.443.443 0 0 1 .261.111.349.349 0 0 1 0 .214.309.309 0 0 1-.348.12.412.412 0 0 1-.175-.175zm-.49.666a.388.388 0 0 1 .245-.317c.126 0 .213.063.261.206.048.142-.048.237-.135.309a.325.325 0 0 1-.372-.198zm-1.45 6.345a.326.326 0 0 1-.19.169.277.277 0 0 1-.317-.185.274.274 0 0 1 .135-.297.275.275 0 0 1 .332.12c.04.065.04.121.04.193zm.744-6.424a.407.407 0 0 1-.206-.225.352.352 0 0 1 .246-.281.341.341 0 0 1 .277.209.251.251 0 0 1-.095.24c-.071.057-.135.057-.222.057zm1.584.23c-.055-.072-.158-.064-.174-.199-.016-.135.08-.206.174-.262a.246.246 0 0 1 .262.19c.047.104.007.215-.064.215-.071 0-.11.055-.198.055zm-1.473.665a2.509 2.509 0 0 1 1.845-.373l.048.04-.056.095c-.521.354-1.17.47-1.781.317zm2.123-1.252a.253.253 0 0 1 .316.261c-.031.103-.079.206-.198.214-.118.008-.23-.04-.23-.158 0-.12-.015-.246.112-.317zm-2.606 7.219a.301.301 0 0 1-.166.349.325.325 0 0 1-.309-.198.262.262 0 0 1 .143-.286.317.317 0 0 1 .332.135zm7.427 4.057c-.152.032-.345.032-.4-.15a.37.37 0 0 1 .167-.404.354.354 0 0 1 .377.182.355.355 0 0 1-.144.372zm-.609-2.892c-.015-.135.048-.27.19-.27.143 0 .317.048.317.206a.325.325 0 0 1-.261.238c-.095-.031-.245-.055-.245-.174zm-.443-.115a.305.305 0 0 1-.206.297.277.277 0 0 1-.261-.176c-.032-.12 0-.217.166-.273.166-.056.206.064.301.152zm-3.088-11.621a.309.309 0 0 1-.278 0c-.055-.056 0-.198 0-.262.12-.238.373-.016.428.095.055.111-.11.143-.11.198zm3.999 13.63c-.04.063-.056.182-.167.23a.285.285 0 0 1-.277-.064c-.055-.079-.087-.142-.055-.245.032-.103.142-.151.222-.151.135.001.25.097.277.23zm-4.16-1.276a2.887 2.887 0 0 1 1.054-1.014h.047c0 .19-.204.3-.275.499a1.4 1.4 0 0 1-1.093.92c-.055-.128.173-.278.228-.405zm4.15-1.252a.184.184 0 0 1-.208 0c-.065-.08-.185-.233-.113-.29.072-.055.032-.104.185-.144.152-.04.224.032.288.185.065.152-.104.184-.152.265zm-7.347-1.34c.087-.094.428-.102.428 0 0 .104.087.199 0 .31a.325.325 0 0 1-.317.055.254.254 0 0 1-.111-.333zm.364.92a.254.254 0 0 1 .262-.246.246.246 0 0 1 0 .492.253.253 0 0 1-.262-.246zm1.49-.539c-.48-.277-.464-.816-.943-1.141.055-.159.18 0 .275 0a2 2 0 0 0 .29.15c.465.262.575.706.89 1.126-.142.166-.354-.04-.512-.127zm-1.108.008c0-.116.065-.222.168-.277a.38.38 0 0 1 .361.142c.032.111.096.246-.104.333-.2.087-.313-.055-.425-.166zm2.445 1.363c-.047.127-.095.222-.237.222a.253.253 0 0 1-.246-.159c-.016-.103.064-.158.064-.222.158-.126.42-.047.42.159zm1.291-15.405c-.095.032-.182-.056-.277-.152-.095-.097.055-.185.055-.265a.26.26 0 0 1 .46.12c.04.145-.095.233-.182.297zm2.115 2.837a.285.285 0 0 1 .166-.286.31.31 0 0 1 .372.206c-.016.12-.143.214-.238.27a.348.348 0 0 1-.3-.19zm.04-.515a.411.411 0 0 1-.262-.169c-.056-.152.079-.353.19-.32.11.031.277.04.277.168a.305.305 0 0 1-.206.32zm29.213-.557a5.297 5.297 0 0 1-.563-1.12 1.83 1.83 0 0 1 .167-.788c.095-.071.19.008.19.094a.583.583 0 0 0 .221.418c.175.421.2.888.072 1.325zm-29.816 1.238c-.087-.071-.158-.127-.158-.27a.65.65 0 0 1 .214-.166c.103-.024.158.04.245.095a.23.23 0 0 1 0 .23c-.079.064-.206.19-.34.111zm12.314-7.519a.35.35 0 0 1-.34-.353c0-.19.152-.345.34-.345h4.126c.188 0 .34.155.34.345a.35.35 0 0 1-.34.353zm3.968-.588c-.396 0-.111.484.158.484.27 0 .285-.484 0-.484zm-1.679 0c-.404 0-.024.484.19.484h.404c.396 0 .016-.484-.198-.484zm-1.679 0c-.404 0-.024.484.19.484h.404c.396 0 .016-.484-.198-.484zm-13.312 7.426c-.095-.088-.19-.222-.095-.294.095-.071.262-.182.372-.071.075.088.096.21.056.317-.095.087-.254.159-.333.048zm29.641-.333a.348.348 0 0 1-.316-.23.277.277 0 0 1 .19-.301.237.237 0 0 1 .166 0c.08.024.127.095.19.166a.34.34 0 0 1-.23.404zm-17.097-9.288l1.045-.745-.625-1.133 1.235.365.483-1.197.491 1.197 1.228-.365-.626 1.133 1.053.745-1.267.206.08 1.292-.959-.864-.95.864.071-1.292zm17.153 9.565c.126-.047.237.056.293.135a.262.262 0 0 1-.182.317c-.135-.04-.317-.064-.317-.246a.261.261 0 0 1 .206-.206zm-1.577-.658c-.193-.071-.209-.3-.33-.428a2.35 2.35 0 0 1 .049-1.529c.112-.048.112.095.16.166.151.315.246.653.281.999-.064.261.04.61-.16.792zm-29.466-.832c-.158.056-.293-.023-.317-.166-.024-.143 0-.27.159-.31.158-.039.26.064.316.199.056.135-.103.206-.158.277zm-.261 1.054c-.666-.04-1.133-.737-1.457-1.22.04-.159.213-.048.316-.048.23.183.491.238.673.476.17.235.361.456.57.658a.119.119 0 0 1-.102.134zm-.483.577c-.175.11-.396 0-.602 0-.483-.164-.792-.564-1.275-.705.016-.133.198-.094.293-.133.287.01.571.069.84.172.26.202.509.42.744.65zm-1.582.12a.27.27 0 0 1 .16-.237.328.328 0 0 1 .329.238.27.27 0 0 1-.148.173.276.276 0 0 1-.229 0 .601.601 0 0 1-.112-.173zm1.035-3.027c-.079 0-.206 0-.261-.07a.238.238 0 0 1-.056-.286c.056-.127.167-.127.262-.127.101.024.188.09.237.182a.428.428 0 0 1-.182.301zm.88.032c-.54-.388-.286-1.157-.428-1.696a.11.11 0 0 1 .142 0c.226.16.375.407.412.682-.08.363-.08.738 0 1.101-.071.072-.056-.055-.127-.055zm-.185.476a.242.242 0 0 1-.28-.127.227.227 0 0 1 .128-.317c.152-.056.248.08.304.182a.277.277 0 0 1-.152.262zm-1.026.116a.353.353 0 0 1 .185-.337.353.353 0 0 1 .345.185c.04.169-.009.297-.177.345-.168.048-.28-.08-.353-.193zm.244 6.738c.04.064.238.095.127.183-.111.087-.222-.056-.372-.056a1.522 1.522 0 0 1-.76-1.45c0-.048.086-.048.142-.048.415.374.74.838.95 1.355zm.808-6.062c-.111.08-.198-.055-.293-.095a.34.34 0 0 1 0-.325c.04-.11.095-.182.222-.11.126.07.277.126.277.26a.309.309 0 0 1-.206.27zm25.34 7.196a.253.253 0 0 1 .428 0c.04.031.08.11 0 .166-.079.055-.19.19-.316.11a.23.23 0 0 1-.135-.26zm104.51 2.995h-86.65v-.444h86.65zm-96.462-2.322a.277.277 0 0 1-.214.254.285.285 0 0 1-.262-.143.214.214 0 0 1 .048-.261c.032-.072.127-.072.182-.072.12.014.22.103.246.222zm-31.867-4.453c-.103.103-.206.095-.269 0-.063-.096-.182-.111-.063-.317.118-.206.372-.096.467.055.039.12-.02.25-.135.301zm31.289 5c.15-.198.467.024.475.103.008.08-.032.143-.143.19-.11.048-.317.071-.317 0s-.079-.182 0-.253zm-.301-.127a.317.317 0 0 1-.278-.166c-.04-.159.095-.206.183-.278a.27.27 0 0 1 .3.183c.032.166-.11.19-.205.261zm-6.858-1.79a.261.261 0 0 1 .451 0 .357.357 0 0 1 0 .181c-.08.135-.253.214-.333.135-.079-.08-.182-.166-.134-.285zm-22.974-2.52c-.126.055-.198-.009-.245-.151-.048-.143.055-.214.135-.278a.3.3 0 0 1 .26.135c.04.143-.062.222-.15.293zm.792.592c-.36.244-.804.329-1.227.233.34-.534.972-.797 1.584-.658.023.056.198-.073.118.096-.079.168-.316.216-.467.329zm-3.429-2.384a.348.348 0 0 1 .262.167.27.27 0 0 1-.167.332c-.095.056-.19-.015-.26-.07a.238.238 0 0 1-.072-.278c.031-.15.15-.095.237-.15zm25.999 5.096c.043-.06.109-.1.182-.111.095.024.206.024.245.134a.182.182 0 0 1-.11.222c-.096.095-.206-.04-.301-.04a.238.238 0 0 1 0-.205zm3.001.006a.314.314 0 0 1 .19-.36.316.316 0 0 1 .277.152c.072.184-.095.24-.206.32a.637.637 0 0 1-.26-.112zm-2.225-.196c-.167.055-.301-.088-.372-.199.07-.11.087-.293.245-.293a.309.309 0 0 1 .277.15.277.277 0 0 1-.15.342zm3.635 1.22c-.04-.056-.143-.127-.143-.222a1.32 1.32 0 0 1 .958.388c.095.143.206.214.262.357.126.172.227.362.3.563h-.126c-.46-.262-1.077-.555-1.251-1.11zm1.94-.816c0 .106-.05.206-.135.27a.27.27 0 0 1-.356-.16c-.048-.11.079-.26.174-.26.095 0 .261.015.317.15zm-1.578.134c-.16.056-.321-.104-.321-.185 0-.08.112-.136.112-.208.2-.088.401.032.425.168.024.137-.112.225-.216.225zm-1.066-.214c.089-.07.129-.182.225-.182.126 0 .243.063.313.167.048.134-.104.206-.16.277a.275.275 0 0 1-.305-.056c-.073-.04-.073-.126-.073-.206zm-29.721-4.406a.253.253 0 0 1 .42.088c.023.103-.032.174-.088.23-.055.055-.166 0-.237 0a.254.254 0 0 1-.095-.35zm22.513 2.48a.245.245 0 0 1-.316-.166c-.04-.095.071-.15.071-.222a.245.245 0 0 1 .372.072c.016.135-.016.277-.127.317zm-3.92-7.448a.135.135 0 0 1-.118-.135c.031-.086.071-.168.119-.246l.126.246a.135.135 0 0 1-.15.087zm-2.106-.048a.135.135 0 0 1-.119-.135c.032-.085.072-.167.12-.245l.126.245a.135.135 0 0 1-.127.135zm4.173 0a.135.135 0 0 1-.126-.135c.031-.085.071-.167.119-.245l.126.245c0 .07-.05.127-.119.135zm-6.256 0a.135.135 0 0 1-.126-.135c.034-.085.076-.168.126-.245l.127.245a.134.134 0 0 1-.127.135zm2.78 3.487l.055.055h-.07v.088l-.072-.056-.071.056v-.088h-.072l.056-.055v-.071h.079v-.08l.047.08h.08zm-1.387 4.216a2.02 2.02 0 0 1-.229-.666c.048-.063.134.032.134-.063s-.086-.143-.086-.238c.441-.08-.19-.507.189-.507.307.333.827.23 1.095.586.071.056.118.135.197.175-.047-.333-.205-.666-.26-1.023a.453.453 0 0 1 .158-.46c.236-.182.433.08.56.223-.025.277-.482-.04-.419.332.041.28.135.549.276.793.134.19.055.475.055.705a1.22 1.22 0 0 1-.528.444c-.354-.04-.96.198-1.142-.285zm4.51.016c.037-.085.08-.168.129-.246l.128.246c0 .07-.057.126-.128.126a.128.128 0 0 1-.128-.126zm.377-2.22c.032-.082.071-.162.119-.237l.127.238a.127.127 0 1 1-.246 0zm-2.083 3.377a1.4 1.4 0 0 1 .12-.246l.094.261a.127.127 0 1 1-.245 0zm-2.85-5.857l.103-.103-.064-.118h.127l.087-.143.08.143h.134l-.064.118.103.103h-.134v.151l-.119-.095-.127.095v-.15zm.807.856l.182.15h-.23v.254l-.213-.158-.206.158v-.253h-.23l.183-.182-.111-.206h.23l.134-.238.143.238h.23zm1.972 2.697a2.277 2.277 0 0 0-.499-.49.959.959 0 0 1-.047-.228.378.378 0 0 1 .047-.221.508.508 0 0 1 .12-.04c.126.024.086.253.126.316.04.063.134.197.222.158a.22.22 0 0 0-.048-.142l.127-.079c-.008-.055-.04-.055-.087-.055a.339.339 0 0 1-.111-.197.515.515 0 0 1 .475-.237c.119 0 .317-.142.38.04.04.039-.04.078-.04.118.159.181.048.41 0 .607.12.197.388-.016.547.142a.095.095 0 0 0 .095-.118c-.056-.04-.064-.087-.143-.087a.45.45 0 0 1-.214-.347c.135-.213.373-.237.594-.292.056-.008.15.095.15.095l-.078.22c-.087.056-.182 0-.182 0a.294.294 0 0 0-.27 0c.064.198.372.206.388.41.016.206-.19.293-.19.49.246.19-.158.3-.071.52-.08.143-.238.143-.348.143-.19-.126.079-.166.079-.3-.198.079-.293.34-.515.49-.08.015-.277 0-.277-.04v-.11a.506.506 0 0 0 .356-.395.285.285 0 0 0-.309-.142 1.16 1.16 0 0 0-.245.347c.024.284-.301.315-.475.402l-.064-.047c0-.087 0-.166.08-.213.277-.134.277-.466.396-.694zm-1.679-4.36h-.126v.15l-.127-.095-.119.095v-.15h-.134l.11-.104-.063-.11h.135l.079-.151.079.142h.143l-.072.111zm2.281-.04c.182 0 .428-.016.428.166s-.254.063-.428.063-.42.19-.42-.063c0-.254.246-.167.42-.167zm-3.058-.8a.35.35 0 0 1-.125-.318c0-.436.384-.095.51-.507.172.523.485-.048.485.523a.39.39 0 0 1-.117.293v.182a.087.087 0 0 1-.079.08h-.596a.079.079 0 0 1-.078-.08zm.358-.492c-.167 0-.357.016-.357.214s.222.087.388.087c.167 0 .388.19.388-.087 0-.278-.253-.214-.42-.214zm3.763.848l-.207.697.207.674-.54-.15.238 1.243-.796-.293-.795.293.318-1.244-.628.182.167-.705-.167-.666.604.095-.294-1.149.795.302.796-.302-.286 1.134zm-.683 1.038c.19 0 .19-.246.19-.452 0-.444-.38 0-.57-.444-.142.373-.523.024-.523.428 0 .286 0 .468.27.468zm1.14-.072c.032-.085.072-.167.12-.245l.126.245a.127.127 0 1 1-.245 0zm-7.736 16.048c-.515-.088-.547-.238-.579-.389-.031-.15-.015-.475.507-.594.148-.014.296-.014.444 0 .071-.016.071-.055.071-.103h.087l.111.5h-.08a.594.594 0 0 0-.633-.31c-.142.032-.277.159-.245.285.031.127.095.167.348.214l.436.08a.483.483 0 0 1 .396.356c.047.198-.072.515-.57.634a2.375 2.375 0 0 1-.491 0 .087.087 0 0 0-.064.095h-.079l-.127-.562h.08c.1.274.387.433.673.372.324-.071.316-.19.285-.34-.032-.151-.174-.207-.372-.207h-.198zm-4.237 1.49c.142-.04.174-.12.237-.31l.476-1.355h.079l.792 1.157c.15.238.206.294.34.294v.063l-.91.103v-.063c.174-.032.213-.04.213-.12a1.197 1.197 0 0 0-.158-.293l-.634.072a1.269 1.269 0 0 0-.087.317c.008.071.143.071.238.071v.063l-.57.064v-.056zm.46-.508l.546-.103-.349-.539zm-8.292-14.977a.245.245 0 0 1-.254 0c-.11-.087-.221-.127-.11-.333.11-.206.42-.04.467.071.047.111-.103.151-.103.238zm13.01 13.38l-.039-.478 1.687-.16.048.479h-.072c-.095-.35-.38-.35-.578-.35l.119 1.25c.024.192.087.192.293.192v.056l-.998.095v-.055c.206-.032.254-.048.254-.248l-.12-1.243c-.197.024-.506.064-.506.446zm7.405 1.518c.15.024.285.032.285-.11l.238-1.118c.032-.15-.095-.214-.222-.214v-.064l.943.199v.055c-.127-.024-.293-.048-.293.11l-.23 1.118c-.032.15.08.222.23.222v.056l-.967-.206zm-4.577-.54h-.95v-.055c.19-.016.253-.023.253-.213v-1.04c.008-.22-.079-.22-.237-.22v-.056h.902c.206.008.792.134.792.426 0 .291-.293.355-.443.394l.546.686c.028.011.06.011.087 0 .135-.008.19-.08.293-.237l.792-1.198h.056l.475 1.308c.095.26.127.355.261.355v.063l-.91-.134v-.063c.174.008.23.016.23-.063a1.1 1.1 0 0 0-.088-.323l-.626-.079a1.44 1.44 0 0 0-.166.284c-.008.087.127.126.222.126v.063l-.562-.07h-.531l-.57-.742h-.08v.465c0 .22.064.22.246.22zm1.497-.498l.546.072-.214-.618zm-1.735-.357c.365 0 .523-.103.523-.348 0-.246-.166-.349-.34-.349-.175 0-.175.024-.175.095zm.008-8.114a1.4 1.4 0 0 1 .12-.246l.126.246a.127.127 0 1 1-.246 0zm4.656 9.501l-1.575-.293v-.056c.157.008.268.016.268-.126l.204-1.126c.024-.15-.086-.206-.212-.206v-.055l.96.174v.056c-.188-.024-.314-.04-.314.166l-.197 1.094c-.016.119.04.182.22.182a.683.683 0 0 0 .788-.333h.078zm-10.856-2.005c.348-.127.736-.15 1.077-.261a23.743 23.743 0 0 1 5.027-.578 2.864 2.864 0 0 1-.007.056l.484.047a.484.484 0 0 1-.01-.055l.128.015c.436.095.895.07 1.354.15 1.988.206 3.85.713 5.853.888.095-.056.095-.135.095-.246-.016-.515-.357-1.18.134-1.585a1.203 1.203 0 0 1 1.204-.301c.455.114.827.442.998.88a6.534 6.534 0 0 1-.555 2.1c-.07.436-.15.863-.221 1.3-.372.736-1.291.689-2.083.689a31.91 31.91 0 0 1-3.96-.706 6.03 6.03 0 0 0-1.488-.198l-.048.048c.325.23.871.182.998.61a.793.793 0 0 1-.04.737c-.095.206-.332.317-.483.46.658.237 1.157 1.03 1.948 1.03.154.064.313.115.476.15.103.072.593.111.791.214a.19.19 0 0 1 .159.111c-.095.135-.388.04-.34.222.079.034.15.085.205.15-.095.128-.3 0-.443 0-.357-.142-.745-.166-1.093-.332a2.764 2.764 0 0 1-.689-.531 4.749 4.749 0 0 0-.744-.222 4.409 4.409 0 0 1-.745-.293c.024.198.071.246.222.515.15.27.356.5.523.792.087.143.26.278.26.428-.229.167-.57.008-.712-.134-.142-.143-.182-.436-.435-.389-.412.523-1.101.08-1.64.365-.221-.016-.467.024-.633-.119a1.158 1.158 0 0 1-.206-1.205c.19-.343.41-.67.657-.974-.047-.103-.134 0-.19 0-.374.25-.653.618-.792 1.046-.239.51-.503 1.007-.792 1.49a.728.728 0 0 1-.538.079.15.15 0 0 1-.095-.222 36.16 36.16 0 0 0 .982-1.53v-.087a8.4 8.4 0 0 0-1.172.175c-.325.079-.507.277-.792.356a2.256 2.256 0 0 1-.705.278c-.277.016-.515.103-.792.103-.079.126-.261.023-.34.126-.087-.015-.182-.04-.087-.11.095-.072.285-.032.26-.214-.023-.183-.316-.127-.316-.302a15.512 15.512 0 0 1 2.463-.412c.367-.213.745-.406 1.132-.578-.142-.214-.594-.27-.435-.642.108-.453.308-.879.586-1.252-.662.025-1.32.115-1.964.27-.19 0-.333.102-.507.102a15.963 15.963 0 0 1-3.563.714 1.406 1.406 0 0 1-1.062-.46c-.221-.317-.095-.808-.15-1.165a.19.19 0 0 0-.214 0 3.957 3.957 0 0 1-2.011-.254c.079-.166.388-.079.554-.166a1.9 1.9 0 0 1 1.584.325c.214-.182 0-.436 0-.658-.127-.681-.53-1.402-.214-2.1.225-.392.66-.615 1.109-.57.401-.016.774.208.95.57.206.555-.451.904-.238 1.474a.364.364 0 0 0 .159 0l.451-.103c.238.071.444-.071.69-.071zm6.104-.84c.02-.21.019-.423-.007-.633a3.599 3.599 0 0 0-1.417-1.84 2.03 2.03 0 0 1-.301.603 1.583 1.583 0 0 1-1.703.579 1.173 1.173 0 0 1-.855-.888.968.968 0 0 1 .317-.975.902.902 0 0 1 .792-.15c.206.023.261.237.412.316a.167.167 0 0 1-.056.222c-.174.088-.3-.055-.443-.126a.562.562 0 0 0-.602.23.936.936 0 0 0 .222.848 1.131 1.131 0 0 0 1.766-.96c-.032-.198-.262-.277-.404-.38a4.218 4.218 0 0 0-2.083-.61 1.149 1.149 0 0 0-.744.61c-.262.452.015.88.055 1.34-.046.306-.14.602-.277.88-.19-.127-.15-.405-.23-.587a1.158 1.158 0 0 1 .103-1.268c.222-.365.261-.77.642-1.063a.063.063 0 0 1 0-.04h-.04a1.892 1.892 0 0 0-.871.476c-.156.153-.287.33-.388.524a2.38 2.38 0 0 0-.277.864 2.745 2.745 0 0 0 .245 1.585 1.725 1.725 0 0 1 1.441.587l-.095.095a3.861 3.861 0 0 1-.847-.19c-.174-.064-.277-.333-.499-.214.016.15.198.27.103.42a.372.372 0 0 1-.261-.278c-.043.354-.212.68-.475.92h-.27c.08-.135.103-.341.19-.46.175-.333.555-.57.428-.999a3.174 3.174 0 0 1 .23-2.378c.119-.373.522-.666.792-.975-.008-.056-.103-.056-.15-.056a9.709 9.709 0 0 0-3.509 1.015c-.641.46-.277 1.237-.38 1.863a1.41 1.41 0 0 1-.507.642c-.055-.087 0-.206 0-.333a4.396 4.396 0 0 1 .523-1.934l-.04-.056c-.87.444-2.083.793-2.28 1.974a3.325 3.325 0 0 0-.12 2.284h-.086a3.31 3.31 0 0 1 0-2.379c.126-.208.224-.432.293-.666-.167-.071-.317.111-.5.111a2.746 2.746 0 0 1-.577.19c-.293.143-.626.183-.911.326.071.04.15-.032.206.15.055.183-.095.357-.206.333-.111-.024-.222-.055-.277-.206-.056-.15.087-.166.126-.277-.087-.103-.182 0-.26 0-.54.008-1.062.134-1.585.134-.206.072-.475-.055-.665.072a.31.31 0 0 1 0 .349.27.27 0 0 0-.095.07c-.15.04-.3.017-.356-.166-.056-.182.221-.293-.056-.364a1.804 1.804 0 0 0-1.41.166c-.364.206-.625.706-1.076.753-.262.135-.594.024-.856.135-.055 0-.055-.08-.055-.135a2.7 2.7 0 0 0 .792-.642c.186-.089.388-.137.594-.142a2.54 2.54 0 0 1 .522-.135.791.791 0 0 0 .373-.111.792.792 0 0 1-.325-.198c.436-.016.808.126 1.227.126a11.716 11.716 0 0 0 4.095-.372l.095-.056a4.092 4.092 0 0 1-.713-.19 2.58 2.58 0 0 1-.895-.396c-.182-.262-.451-.056-.752-.262-.301-.206-.539-.57-.84-.753-.016-.095.04-.095.087-.095.584-.058 1.14.26 1.386.793a2.5 2.5 0 0 0 2.043.666c.721.04 1.26-.54 1.909-.793.104-.056.202-.123.293-.198-.317-.19-.72-.04-1.07-.19a1.148 1.148 0 0 1-.585-.46c.079-.056.19 0 .317 0 .356.023.839-.104 1.1.19.167.11.277.309.483.349.663-.231 1.305-.52 1.917-.865-.119-.118-.23 0-.372 0-.602-.07-1.006-.658-1.68-.594v-.103a2.302 2.302 0 0 1 2.004.254.791.791 0 0 0 .673.222 4.834 4.834 0 0 1 1.545-.318 5.95 5.95 0 0 1 3.92.793h.103a1.585 1.585 0 0 0-1.062-1.03 29.727 29.727 0 0 0-4.11-.111l-13.462-.056a1.838 1.838 0 0 1-1.52-1.165c-.152-.4-.07-.852.213-1.174.251-.24.597-.357.943-.317.298.07.541.284.649.571.095.072.04.206.04.31a.65.65 0 0 1-.357.443c-.095.04-.237.024-.166-.127.071-.15.317-.348.222-.499-.095-.15-.254-.388-.468-.388a.792.792 0 0 0-.704.372.928.928 0 0 0 0 .793c.166.626.855.793 1.378.88 4.07.071 7.792-.12 11.878-.056h5.029c.34.103.784.127.99.436.582.309.976.884 1.053 1.538.381.32.731.676 1.045 1.063.103-.151-.055-.317-.055-.476a9.51 9.51 0 0 0-3.96-4.685 8.93 8.93 0 0 0-1.378-.745 9.72 9.72 0 0 0-1.457-.746 9.52 9.52 0 0 0-.435 1.515s-.15.792.055 1.038a2.184 2.184 0 0 0 1.529.159c1.037-.016 2.098-.278 2.985.222.04.055.19.023.19.11.17.065.296.211.333.389.04.087-.08.095-.08.143a4.034 4.034 0 0 1-.942-.143c-1.766-.103-3.437 0-5.108 0-.174-.032-.411-.032-.451-.254-.182-.467.11-.903.19-1.347a6.491 6.491 0 0 0 .238-2.117 1.196 1.196 0 0 0-.982.888 2.666 2.666 0 0 1-.293.793 4.019 4.019 0 0 1-1.45 1.839c-.35.159-.732.232-1.116.214h-5.44c-.713-.127-1.584.206-2.218-.214 0-.072-.055-.135 0-.206.428-.294.99-.127 1.52-.222.495.051.994.051 1.49 0a25.37 25.37 0 0 0 3.009-.23 4.66 4.66 0 0 0 1.583-.508.793.793 0 0 1-.206-.285.34.34 0 0 1 .246-.27c.135.048.26.118.372.207.272-.363.384-.821.309-1.269-.539.547-1.077 1.086-1.584 1.657-.415.29-.922.42-1.425.365-.111-.159.142-.214.206-.31.435-.46 1.227-.166 1.583-.848.088-.11.262-.166.262-.293a.475.475 0 0 1-.301-.19.206.206 0 0 1 0-.214.253.253 0 0 1 .317-.111c.134.087.19.206.19.364.265-.263.484-.568.649-.903v-.048c-1.473-.174-2.502.864-3.849 1.062a3.48 3.48 0 0 1-1.03.056c.444-.167.967-.15 1.41-.31.982-.332 1.838-.927 2.93-1.014.221.012.442-.02.65-.095a9.905 9.905 0 0 0 .032-1.847c-.634-.365-1.196-1-1.988-.666a1.125 1.125 0 0 0-.895.721c-.095.531.34 1.11-.095 1.586-.15-.056-.15-.222-.15-.365-.143-.293-.436-.595-.214-.943.155-.39.433-.718.792-.936.277-.15.594-.23.87-.357v-.055a5.54 5.54 0 0 0-2.264-.951c-.182.031-.412-.056-.554.087h-.08c-.34.182-.649.579-1.132.5-.309.015-.594-.072-.903-.072-.024-.15.087-.15.166-.15.515-.587 1.386-.223 2.02-.516.319-.012.638.017.95.087.103.037.209.063.317.08-.071-.254-.206-.42-.261-.69-.254-.904.396-1.499.443-2.291.04-.016.048-.072.103-.072a1.587 1.587 0 0 1-.15 1.784c-.151.23-.357.555-.19.872.411.809 1.322.753 1.955 1.197.39.292.823.522 1.283.682.127-.135.127-.373.127-.57.127-1.222 1.061-2.086 1.853-2.974a10.218 10.218 0 0 0 2.994-4.217 6.444 6.444 0 0 1 .245-1.84l-.04-.205a2.014 2.014 0 0 1-.673-1.372.175.175 0 0 1-.047-.206c.237-.08.435.159.641.159.277.186.541.39.792.61.246-.349.436-.642.697-1.007.127-.04.198.071.198.159.082.354.068.723-.04 1.07.135.293.373.357.594.587v.174c.23.436 1.046.412.745 1.118-.301.705-1.806-.214-1.386 1.014.071.143.032.333.11.476.048.317.16.626.199.96.04 0 .095.07.15 0 .056-.072.024-.167.127-.223.784.096 1.275-.713 2.067-.404.364 0 .617.341.95.46h6.597v.737a11.3 11.3 0 0 1 1.259-2.172c.324-.408.503-.913.507-1.435-.246-.198-.594-.095-.895-.15-.095-.088-.357.07-.357-.167.37-.171.68-.447.895-.793a.791.791 0 0 1 .792-.158c.445.19.744.618.768 1.102a9.609 9.609 0 0 1-.57 2.378c-.15.3-.274.614-.372.935a2.761 2.761 0 0 0-.261 1.475.792.792 0 0 0 .538.587c.974-.35 2.075-.84 3.168-.46a5.772 5.772 0 0 1 2.914 1.791c.427.4.79.862 1.077 1.372.08.095.135.277.222.372.023.1.06.196.11.286v.08c.064-.04.12-.04.12-.04.241-.144.456-.33.633-.548 0-.15-.166-.3 0-.428a.23.23 0 0 1 .277-.055c.102.044.163.15.15.261-.314.41-.664.793-1.045 1.142-.032.404.262.92-.182 1.157a.498.498 0 0 0-.348.072 2.99 2.99 0 0 1-.69-.159 3.607 3.607 0 0 0-1.092 0l-.301.143a.547.547 0 0 0-.135.135.516.516 0 0 1-.055.293 5.88 5.88 0 0 0-.095.793c.332.118.678.192 1.03.222.704.182 1.425.349 2.13.515.61-.127.823-.809 1.401-.92.174.04.483-.11.5 0 .015.111-.167.08-.167.167-.291.4-.715.68-1.196.793-.04.055-.182.031-.182.095.182.198.515.214.744.349.378.129.733.316 1.053.555a2.208 2.208 0 0 1-.791-.262 13.324 13.324 0 0 0-2.978-.84c0 .11.071.3 0 .364s-.08.12-.238.064c-.158-.056-.245-.167-.158-.317l.135-.159a1.582 1.582 0 0 0-.927-.135c.071.127.364.206.222.405-.261-.016-.372-.333-.618-.333-.087.388-.055.872-.166 1.276a.516.516 0 0 1 0 .27c.055.293 0 .594.055.792.056.199-.095.405-.158.531-.063.127-.095.254-.23.302a12.3 12.3 0 0 1-2.597-.048c0-.285.317-.23.483-.34.665-.175 1.592-.112 1.821-.904.113-.665.156-1.34.127-2.014l-.095-.087c-.701-.1-1.413-.1-2.114 0-.056.008-.111-.048-.111-.048-.317.57-.65 1.134-.935 1.705a6.926 6.926 0 0 0-.388.856c-.15.182-.277.396-.15.634a.349.349 0 0 1-.222.262c-.903.07-1.837 0-2.677 0-.047-.016-.11-.024-.11-.064.285-.404.894-.301 1.322-.475.135-.056.356.055.467-.096.206-.015.333-.237.539-.237a10.372 10.372 0 0 0 1.425-2.379c-.198-.127-.388.056-.594.056a12.37 12.37 0 0 0-1.504.594 8.273 8.273 0 0 0-1.71.92c-.056.087 0 .087 0 .087.577.08 1.1-.27 1.654 0 .222.182.539.246.729.428a.103.103 0 0 1 0 .095 3.576 3.576 0 0 1-1.917-.277c-.522 0-1.132-.08-1.48.38a7.657 7.657 0 0 0-1.83 2.307c-.158.31-.158.682-.364.96-.071.333-.222.626-.285.959l.04.047a9.413 9.413 0 0 1 1.076-1.102 2.196 2.196 0 0 1 1.022-1.49c1.259-.777 2.954-.357 4.427-.5 0 0 12.575 0 13.7-.15.378-.086.694-.344.855-.698a1.073 1.073 0 0 0 0-.737.927.927 0 0 0-.412-.372c-.166 0-.404-.072-.538.07a.444.444 0 0 0-.15.484c.023.143.22.143.15.325a.222.222 0 0 1-.278.064.682.682 0 0 1-.26-.793.95.95 0 0 1 .791-.57 1.1 1.1 0 0 1 1.037.586c.181.415.146.893-.095 1.276a1.742 1.742 0 0 1-1.583.793c-5.457.087-10.644.127-16.187.182a1.956 1.956 0 0 0-1.885 1.047c.08.166.175-.095.34-.04a5.269 5.269 0 0 1 3.77-.325c.349.103.69.183 1.038.278.19.063.388.119.594.166.95.284 1.88.628 2.787 1.03.317.128.634.278.95.437.15.024.278.182.428.182l1.117.698h.11c.87.349 1.785.578 2.717.681.182.159.514-.04.665.159-.38.103-.76-.055-1.172-.055a13.7 13.7 0 0 1-1.695-.429.855.855 0 0 1-.483-.158c-.633-.167-1.204-.468-1.821-.674v.04a2.7 2.7 0 0 1 .499.737.698.698 0 0 1 .166-.31.411.411 0 0 1 .404.096c.063.071.055.15 0 .254-.056.103-.182.103-.27.15a.404.404 0 0 1-.229-.119c-.095.175.119.317.119.5a3.888 3.888 0 0 1-.452 2.798c-.087.12-.11.301-.261.412-.127-.095.11-.222.11-.333a5.554 5.554 0 0 0 .508-2.378 2.98 2.98 0 0 0-2.012-2.52 9.944 9.944 0 0 0-1.013-.318v.056c.316.578.926.753 1.013 1.442.08.163.08.353 0 .516h-.047a3.569 3.569 0 0 1-.792-1.507c-.357-.983-1.433-.903-2.225-1.276a7.958 7.958 0 0 0-1.861-.333l-.056.056c.322.283.576.635.745 1.03.372.745.15 1.792.633 2.458.198.261.483.444.53.793 0 .11.08.237 0 .356-.332-.04-.538-.372-.665-.626a1.34 1.34 0 0 0-.26-.69 4.659 4.659 0 0 1-.128.706c-.134-.04-.063-.246-.063-.404v-.08c-.182.15-.428.508-.594.579-.166.071-.396.174-.562.071a1.18 1.18 0 0 1 .372-.444c.34-.174.784-.372.895-.792.072-.8-.117-1.6-.539-2.283a3.763 3.763 0 0 0-.839-.722.308.308 0 0 0-.166 0c.218.232.395.5.522.793.224.477.288 1.014.183 1.53-.072.143-.072.396-.238.396-.444-.73.333-1.665-.301-2.315a1.441 1.441 0 0 0-.736-.46 4.669 4.669 0 0 0-1.972.698c-.111.222 0 .412 0 .642.105.218.236.423.388.61a1.4 1.4 0 0 0 1.322.128.848.848 0 0 0 .46-.658.746.746 0 0 0-.198-.54.42.42 0 0 0-.436-.087c-.166.111-.372.214-.372.42-.048.072-.135.127-.214.072-.08-.056-.08-.182-.08-.293a.926.926 0 0 1 .793-.516.982.982 0 0 1 .792.357c.3.38.079.84-.103 1.173a1.496 1.496 0 0 1-1.49.484 1.838 1.838 0 0 1-1.195-1.054c-.055-.096 0-.42-.237-.278a4.21 4.21 0 0 0-1.426 2.283.484.484 0 0 0-.05.278l-.425-.049h-.041zm-4.765 6.181a3.263 3.263 0 0 0 1.442-.491 2.474 2.474 0 0 0-1.179.174c-.151.08-.358.008-.454.135zm8.655-.198c-.056-.055-.111 0-.111 0 .367.283.791.483 1.243.587-.04-.278.301-.088.34-.278a6.094 6.094 0 0 1-1.472-.348zm-12.948-5.959a.793.793 0 0 0 .34.697l.04-.047c-.063-.175.032-.38-.063-.531a.618.618 0 0 1 .174-.61.791.791 0 0 1 .626-.143c.11.071.26.08.26.254a1.586 1.586 0 0 0-.078.626h.134a.618.618 0 0 0 .206-.626.547.547 0 0 0-.222-.27 1.156 1.156 0 0 0-1.092-.04 1.007 1.007 0 0 0-.325.69zm1.394.53c-.254-.047-.539.025-.745-.126v.349c.127.245.428.19.665.245a.515.515 0 0 0 .072-.467zm-.8-.593c.028.166.181.28.348.261.037-.159.06-.32.072-.483-.016-.087-.12-.12-.27-.087-.15.031-.103.198-.15.309zm6.478 4.461c.238.146.487.273.744.38a.182.182 0 0 0 .127-.166c-.198-.214-.602-.214-.69-.364-.086-.151-.047-.246-.047-.428.111-.46.539-.547.903-.642a.791.791 0 0 0-.594 0 1.506 1.506 0 0 0-.443 1.252zm-.5.999a1.98 1.98 0 0 0 1.064-.31c-.376-.126-.727.167-1.063.31zm1.306.134c0-.11.165-.166.079-.245-.254.362-.49.738-.706 1.125-.078.166-.274.317-.274.515.086-.016.22-.032.22-.103.255-.419.48-.856.674-1.308zm-.442-1.363c.217.074.44.13.665.167.189-.225.307-.5.34-.793a.704.704 0 0 0-1.005.175c0 .158-.143.317 0 .451zm.974.167a1.17 1.17 0 0 0 .222-.587 2.29 2.29 0 0 0-.222.587zm.15-1.141c.016-.088.127-.167.056-.27-.172-.04-.35-.04-.523 0 .19 0 .285.206.467.254zm.17 1.038a.217.217 0 0 0 .209-.095c-.024-.04-.128-.159-.168-.095-.04.063-.04.134-.04.19zm.203-.864a.396.396 0 0 0 .134.491c.143.127.317 0 .444-.055.372-.238 0-.61 0-.896a.791.791 0 0 0-.372-.055 1.633 1.633 0 0 0-.206.515zm1.005-.357l.002-.024a.56.56 0 0 1-.002-.007zm.002-.024c.113.423.388-.063.608-.063h-.427c-.052.08-.164-.022-.18.063zm.687.21a.538.538 0 0 0-.451.297c.166-.04.285-.241.451-.297zm-.475 1.645a.34.34 0 0 0-.348-.15l.317.245v-.095zm-.317-.349a.087.087 0 0 0-.087-.079zm-.26-.253l.05-.076a.713.713 0 0 1-.075.036zm.05-.076a.713.713 0 0 0 .17-.13s.096 0 0 0c-.067 0-.123.064-.17.13zm-.362.081c0-.024.048-.08 0-.08l-.08.08zm.01.526a7.98 7.98 0 0 0-.507 1.339c.08.127.34.127.491.127.293-.199.705.04.974-.199.206-.42-.332-.697-.538-.998-.071-.158-.238-.46-.42-.27zm-.38.269c-.127.293-.475.555-.388.888.18-.32.33-.654.451-.999zm.597 1.656c.33-.142.882.175.993-.277-.032-.293-.26 0-.418-.048a5.57 5.57 0 0 0-.961 0c-.205.175-.394-.087-.615 0-.016.111.095.159.095.278.252.222.646.055.906.055zm.884-1.117c-.023.11 0 .224.063.317.087-.127-.063-.182-.063-.317zm.388.792a.214.214 0 0 0-.103-.261c0 .08-.071.23 0 .285h.071zm.657.357c-.332-.531-.594-1.125-.926-1.672h-.056c.215.593.508 1.156.871 1.672h.111zm.553-1.276a2.721 2.721 0 0 0-.996-.45v.072c.26.253.598.406.956.434a.065.065 0 0 1 0-.056zm-.37-1.228a.895.895 0 0 1-.832.475.831.831 0 0 0 1.006-.737c-.008-.142-.024-.325-.19-.364zm-.317-.682c-.238-.499-.729.016-.982.175-.254.158.11.34.07.515a.15.15 0 0 1 .048.142.48.48 0 0 0 .325.103c.246-.063.523-.063.657-.325a.936.936 0 0 0-.118-.61zm6.216-4.334a.793.793 0 0 0-.428.72c.08.19.095.444.373.444l.055-.46c.04-.126-.016-.26.111-.348a.84.84 0 0 1 .863.278c.111.38-.206.61-.206.95a.792.792 0 0 0 .594-.475c.04-.246.095-.594-.11-.792a.61.61 0 0 0-.452-.294.942.942 0 0 0-.792 0zm.256 1.267c.112.072.2-.015.297-.095.096-.079.096-.245.096-.364-.393-.563-.24.309-.393.46zm.181.338a2.46 2.46 0 0 0-.681-.145.739.739 0 0 0 0 .393h.336c.113-.08.305-.024.305-.248zm-10.692-.456a24.453 24.453 0 0 0-3.168.49 8.705 8.705 0 0 1-3.278.35 5.675 5.675 0 0 0-.634-.238 1 1 0 0 0 .056.364c.063.33.1.664.11.999.151.444-.055 1.078.444 1.323a4.669 4.669 0 0 0 1.932 0 33.728 33.728 0 0 1 3.12-.737 16.931 16.931 0 0 1 7.08.103c1.592.278 3.207.832 4.847.476.182-.103.388-.222.388-.476.15-.126.04-.348.15-.483.127-.476.22-.96.277-1.45-1.188.547-2.581.198-3.825 0a2.232 2.232 0 0 1-.412-.072c-.791-.055-1.488-.261-2.28-.356-.372-.032-.705-.143-1.093-.143a21.192 21.192 0 0 0-3.698-.127zm-.246-8.276l.127-.249c.05.079.093.162.127.25a.136.136 0 0 1-.127.136.136.136 0 0 1-.127-.137zm7.967 11.017v.007a.389.389 0 0 1-.04.001zm0 .007c.12-.013.168-.086.261-.244l.792-1.22h.08l.498 1.299c.095.27.135.357.27.357v.063l-.903-.095v-.056c.182 0 .237.008.237-.07a1.142 1.142 0 0 0-.095-.326l-.633-.071a1.19 1.19 0 0 0-.15.293c-.016.127.118.127.213.127v.055l-.57-.055zm.554-.45l.547.063-.23-.602zm-.926-11.443a.245.245 0 0 1-.262-.23.23.23 0 1 1 .262.23zm.34.243a.25.25 0 0 1 .083-.172.243.243 0 0 1 .179-.061.23.23 0 0 1 .199.116.235.235 0 0 1 0 .233.23.23 0 0 1-.2.116.243.243 0 0 1-.178-.061.25.25 0 0 1-.083-.172zm1.32-.402a.233.233 0 0 1-.201-.115.227.227 0 0 1 0-.23.233.233 0 0 1 .434.115c0 .127-.105.23-.233.23zm-.44-.428a3.124 3.124 0 0 1-.325-.982c.086-.238.142-.486.166-.737.198-.048.182.206.238.317.189.41.189.882 0 1.291zm-12.592 11.177c-.048-.159-.119-.159-.277-.159v-.056l.926-.223v.056c-.213.056-.261.08-.213.279l.174.796c.031.136.11.455.507.359a.449.449 0 0 0 .364-.621l-.166-.71c-.032-.159-.08-.207-.317-.159v-.056l.602-.143v.056c-.167.055-.206.095-.167.247l.175.733a.689.689 0 0 1-.048.486.902.902 0 0 1-.507.294.921.921 0 0 1-.586 0c-.142-.055-.23-.119-.293-.366l-.174-.797zm-6.85-4.81c.1.027.185.093.238.184.04.072-.064.112-.064.184a.235.235 0 0 1-.261 0 .186.186 0 0 1-.08-.24c.04-.129.127-.073.167-.129zm3.136-.265a.293.293 0 0 1-.238-.142c-.055-.167.087-.238.183-.31.12.017.22.1.26.214a.277.277 0 0 1-.205.238zm-2.993 1.22c-.064-.142.063-.19.134-.261a.285.285 0 0 1 .293.15c.008.151-.087.246-.198.262-.11.016-.166-.063-.23-.15zm6.197-5.27a.25.25 0 0 1 .18.061c.05.043.08.104.085.17a.231.231 0 0 1-.224.227.232.232 0 0 1-.24-.21.23.23 0 0 1 .199-.247zm-9.04 6.04a1.084 1.084 0 0 1-.895-.207 1.87 1.87 0 0 0-.729-.697c0-.04-.087-.127 0-.127.69 0 1.1.563 1.624.935zm-1.434-.315c.087.04.27.016.262.112-.008.097-.024.265-.095.265-.072 0-.23.088-.262 0-.031-.088-.182-.16-.095-.257a.5.5 0 0 1 .19-.152zm3.413-.565c0-.115.07-.217.175-.262.11 0 .237-.016.324.111a.277.277 0 1 1-.325.357c-.094-.008-.174-.12-.174-.206zm-.07-.991c.15-.095.3.071.355.182a.27.27 0 0 1-.174.27.261.261 0 0 1-.293-.127.254.254 0 0 1 .111-.325zm7.657-4.533a.222.222 0 1 1-.436 0 .222.222 0 1 1 .436 0zm-9.566.674a.292.292 0 0 1-.349-.185c-.04-.152-.016-.184.143-.265.158-.08.285.04.372.169-.056.112-.032.225-.166.28zm2.043-.23a.27.27 0 0 1-.349.071c-.134-.055-.174-.325-.095-.348.08-.024.08-.127.19-.127a.467.467 0 0 1 .277.142c.111.08 0 .183 0 .262zm7.784.452a.245.245 0 0 1-.261-.23.261.261 0 1 1 .523 0 .246.246 0 0 1-.262.23zm-11.015-2.06c0-.056 0-.127.055-.127.57.134 1.228.023 1.695.372.047.15-.095.15-.159.15-.56.191-1.18.036-1.583-.396zm-.254 2.472c-.095-.15.08-.317.19-.333.111-.016.198.04.254.166.055.127-.056.222-.127.278a.3.3 0 0 1-.317-.111zm.887-.497c.12-.016.333.104.325.128-.008.024.047.072.047.072-.015.153-.126.193-.213.265a.355.355 0 0 1-.301-.144.236.236 0 0 1-.001-.194.23.23 0 0 1 .143-.127zm-.586-.09a.317.317 0 0 1-.15-.332.998.998 0 0 1 .222-.151c.129.01.238.098.277.222.04.095-.072.15-.072.222a.237.237 0 0 1-.277.04zm27.305 2.853c0 .167-.3.127-.427.254-.458.19-.957.26-1.45.206v-.08a2.034 2.034 0 0 1 1.877-.38zm-14.626-9.969a.127.127 0 1 1-.254 0l.127-.246c.05.078.093.16.127.246zm-.127-2.726a.135.135 0 0 1-.127-.135c.034-.086.077-.168.127-.245l.127.245c0 .072-.056.13-.127.135zm-2.02 7.655a.245.245 0 0 1 .262.23.261.261 0 1 1-.523 0 .246.246 0 0 1 .262-.23zm2.083-2.165c0 .07-.056.128-.126.128a.128.128 0 0 1-.127-.128l.127-.241c.05.075.093.156.126.24zm1.035 1.365c-.236 0-.552-.23-.552-.737 0-.15.119-.206.048-.23-.071-.024-.08-.095-.071-.095h.142c-.024-.095-.119-.103-.119-.174 0-.072.174.023.174-.072s-.15-.11-.15-.23c0-.118.142.064.236.064 0-.222-.228-.262-.228-.444.29.087.512.323.583.618v.23c0 .11.126.333.229.333.102 0 .047-.182.047-.246 0-.063-.095-.222-.158-.222.071-.11.3-.11.402-.11.332 0 .213.602.332.475.107-.17.161-.37.157-.57 0-.27.197-.223.418-.516.032.064-.016.285-.244.468.291-.135.394-.143 0 .293.244-.048.536-.31.086.34.134-.063.276-.166.276-.063a.847.847 0 0 0-.228.301c.047-.063.189-.095.205-.063.015.032-.024.737-.34.53-.315-.205-.055.167-.055.167.032.143.048.072.103.143.055.071-.268.04-.268.198 0 .159.094.056.094.293 0 .087-.189-.11-.244-.095-.055.016-.031.214-.15.214-.093 0-.166-.152-.182-.201-.025.046-.243.163-.243.106.008-.11.008-.222 0-.333 0-.19-.253-.055-.253-.19s.158-.11.158-.222c0-.11-.087-.024-.087-.11-.023.055.008.174-.157.174zm-.868.99a.119.119 0 0 1-.12-.134l.12-.246c.048.078.09.16.126.246a.127.127 0 0 1-.126.134zm.554-.079a1.44 1.44 0 0 1-.618-1.314v-6.389h7.92v6.405a1.433 1.433 0 0 1-.626 1.314l-3.089 1.852a.38.38 0 0 1-.245.095.356.356 0 0 1-.277-.126l-3.05-1.821zm4.53-3.027h-2.22v4.152l.864.523a.404.404 0 0 0 .182.056.38.38 0 0 0 .23-.08l.87-.522zm2.595.024h-2.366v3.972l1.806-1.12c.32-.257.508-.645.513-1.057zm-2.366-.24h2.329v-4.238H758.5zm-2.486 0h2.217v-4.238h-2.217zm-.903-2.597h.689v-1.64h-.689zm.288.467l-.096.103h.12v.143l.12-.087.12.087v-.143h.13l-.105-.103.064-.11h-.128l-.08-.135-.08.134h-.129zm.4.531h-.68v1.585h.68zm-1.266-2.142l-.095.104h.119v.137l.118-.089.12.089v-.137h.126l-.103-.104.063-.112h-.126l-.08-.145-.079.145h-.126zm-.063 1.327c-.12 0-.095.152-.159.112-.063-.04-.095-.08-.15 0 .11.065.174.209.277.209-.071.08-.261.329-.182.329.079 0 .087-.24.602-.24-.032.04-.127.063-.127.112 0 .048.008.048.071.048s.143-.129.166-.129c.024 0 .088.04.088.057 0 .016-.111.096 0 .096.253 0-.103-.586-.254-.586-.15 0-.11.225-.15.225-.04 0 .023-.225-.206-.225zm.095 1.972v.135l.118-.087.12.087v-.135h.126l-.103-.103.063-.11h-.126l-.08-.135-.079.134h-.127l.064.095-.095.103zm-1.165-2.171h.832v-1.64h-.832zm.23.6v.145l.119-.088.119.08v-.144h.118l-.095-.105.056-.112h-.127l-.071-.136-.08.136h-.126l.055.096-.095.105zm-.23 2.039h.832v-1.585h-.832zm0 1.965c.006.41.194.798.513 1.054l1.893 1.133v-3.962h-2.406zm17.43 9.217a.357.357 0 0 1-.213-.27.42.42 0 0 1 .213-.238.364.364 0 0 1 .31.159.358.358 0 0 1-.215.349h-.095zm-2.56-8.566c-.495.128-.92.425-1.415.554-.055.04 0 .08 0 .08h1.431v-.466zm-1.418-.521a4.81 4.81 0 0 0-.425.787 10.233 10.233 0 0 0 1.677-.622 1.575 1.575 0 0 0-.787-.913c-.126.024-.276 0-.37.094.087.095.142.15.142.292a1.803 1.803 0 0 1-.252.37zm-4.923.029a1.768 1.768 0 0 1-.792 1.584l-1.734 1.094c.01.13.045.256.103.372.106.186.158.397.15.61-.01.202-.056.4-.134.587a13.99 13.99 0 0 1 5.076-2.86 3.31 3.31 0 0 0 .634-.175.507.507 0 0 0 .348-.325c.032-.467.404-.832.238-1.347-.15-.182-.183-.626-.5-.531-.585.325-1.14-.111-1.583-.468a3.89 3.89 0 0 1-1.806-1.846zm-9.32.103c.008.499.237.97.626 1.283l3.623 2.306a.468.468 0 0 0 .285.103.408.408 0 0 0 .278-.103l3.63-2.306c.39-.314.619-.784.627-1.283v-7.196h-7.135l-.111.143a1.586 1.586 0 0 1-.333-.143h-1.506v3.17c.127.372.349.681.349 1.014 0 .333.11.888-.254 1.126a.063.063 0 0 1-.111 0zm-.822-5.326c-.145.349.417.555.545.832v-1.49a.135.135 0 0 0-.072-.095 1.1 1.1 0 0 0-.473.793zm2.635 9.121c-.135-.507.15-.943.15-1.418l-1.496-.951c-.514-.358-.8-.96-.753-1.585v-3.114c-.221-.436-.641-.444-1.069-.713a2.125 2.125 0 0 0-.269.72c-.087.207-.158.429-.237.643a6.5 6.5 0 0 0-.428 1.291 2.72 2.72 0 0 1-.087.951c.002.214-.025.427-.08.634-.031.048-.158.38-.3.793a26.486 26.486 0 0 1 4.577 2.773zm2.138 2.956c.135.095.111.317.262.42.07-.071.205-.103.15-.237a4.636 4.636 0 0 1-.594-1.03c-.206-.199-.222-.54-.356-.793a1.586 1.586 0 0 1 .19-1.625l.142.08c.04.324.246.713.12 1.117a1.25 1.25 0 0 0 .126 1.292c.198.277.317.657.65.792.26-.166.355-.42.553-.666v-.055c.666-.737-.182-1.862.341-2.655l-.72.46a.443.443 0 0 1-.302.11.427.427 0 0 1-.332-.15l-2.115-1.339.12.095c-.017.071.094.15.094.222.142.36.072.77-.182 1.062-.071.135.087.246.087.372.708.743 1.3 1.587 1.758 2.504zm.919 1.568c-.016-.223.214-.478.079-.646-.135-.167-.206-.35-.404-.43-.095.151-.309.287-.206.47.103.183.103.39.206.558-.055.224.158.351.111.567h.055c.022-.171.076-.336.159-.487zm-.087-1.314c.07.15.15.333.316.333.385-.95.882-1.849 1.481-2.679.19-.253-.016-.539-.055-.792a1.903 1.903 0 0 1 .103-1.165l-.88.555h.064c-.317.213.182.49.087.792.12.19 0 .404 0 .634-.126.08-.031.261-.126.333a4.582 4.582 0 0 1-.959 1.989zm-5.892-5.8c.127-.025.34-.017.364.11.024.127-.087.214-.166.262a.261.261 0 0 1-.293-.111.198.198 0 0 1 .095-.262zm6.24-5.16l.103.103h-.135v.15l-.079-.094-.126.095v-.182h-.127l.103-.103-.064-.12h.135l.08-.142.078.135h.127zm12.243 12.022a.396.396 0 0 1-.3-.23c-.04-.111.054-.167.094-.23a.261.261 0 0 1 .428.08c.055.197-.064.308-.222.38zm.214-1.347a2.288 2.288 0 0 1-1.188.483h-.744l-.072-.056a2.24 2.24 0 0 1 2.004-.499zm.23 1.402a2.106 2.106 0 0 1 2.003-.658c0 .04.055.056.055.127a2.94 2.94 0 0 1-1.853.587c-.055.04-.174.071-.174.04v-.096zm-18.769-9.09c.032-.142.198-.197.238-.055.18.527.12 1.107-.166 1.585-.016.111.023.278-.127.278-.372-.508-.095-1.237.055-1.776zm15.229 7.644a.3.3 0 0 1 .277-.186.3.3 0 0 1 .277.186.401.401 0 0 1-.214.321c-.119.032-.3-.04-.3-.096v-.225z"/><path id="b" d="M787.542 2725.634h-2.13l-.254.586a1.42 1.42 0 0 0-.126.483.404.404 0 0 0 .206.373c.19.072.39.11.593.11v.167h-2.011v-.166a.918.918 0 0 0 .538-.27c.212-.279.386-.585.515-.911l2.186-4.826h.08l2.177 4.96c.123.322.297.622.515.888a.744.744 0 0 0 .427.159v.166h-2.946v-.166h.12a.87.87 0 0 0 .498-.072.23.23 0 0 0 .095-.198.603.603 0 0 0 0-.166s-.055-.143-.135-.333zm-.15-.333l-.895-2.084-.927 2.084z"/><path id="c" d="M793.977 2723.15v3.265c-.023.203.01.408.095.594a.467.467 0 0 0 .356.143v.166h-1.695v-.562a2.202 2.202 0 0 1-.594.523 1.385 1.385 0 0 1-.673.158.997.997 0 0 1-.625-.214 1.03 1.03 0 0 1-.365-.507 3.647 3.647 0 0 1-.095-1.006v-1.625c.02-.2-.01-.401-.087-.586a.522.522 0 0 0-.364-.15v-.199h1.695v2.845c-.011.194.005.389.047.578.02.08.068.15.135.199.06.041.132.064.206.063a.53.53 0 0 0 .293-.087c.17-.128.316-.286.427-.468v-2.195c.02-.2-.01-.401-.087-.586a.522.522 0 0 0-.364-.15v-.199z"/><path id="d" d="M797.356 2723.06l.063 1.426h-.15a2.227 2.227 0 0 0-.563-.871.942.942 0 0 0-.578-.23.427.427 0 0 0-.316.127.365.365 0 0 0-.04.515c.241.236.506.446.792.626.332.211.624.48.863.792.135.205.207.445.206.69 0 .238-.06.472-.174.681-.11.216-.28.396-.491.515a1.377 1.377 0 0 1-.697.175 2.374 2.374 0 0 1-.792-.183.673.673 0 0 0-.182-.047c-.095 0-.182.071-.246.222h-.142l-.071-1.498h.142c.102.336.29.64.546.88.18.173.416.277.666.293a.483.483 0 0 0 .348-.127.452.452 0 0 0 .135-.325.547.547 0 0 0-.111-.404c-.18-.18-.38-.339-.594-.475a4.752 4.752 0 0 1-.887-.722 1.3 1.3 0 0 1-.293-.792c.001-.321.12-.631.333-.872a1.22 1.22 0 0 1 .958-.388c.23 0 .455.058.657.166a.38.38 0 0 0 .198.064.198.198 0 0 0 .127 0 .943.943 0 0 0 .158-.19z"/><path id="e" d="M799.581 2721.66v1.49h.99v.444h-.99v2.567a1.958 1.958 0 0 0 0 .468.327.327 0 0 0 .12.166.23.23 0 0 0 .158.063c.19 0 .372-.142.546-.435l.135.095a1.23 1.23 0 0 1-1.172.856 1.029 1.029 0 0 1-.674-.222.935.935 0 0 1-.348-.492 3.964 3.964 0 0 1-.047-.792v-2.243h-.539v-.158c.346-.228.664-.494.95-.793.27-.294.502-.622.69-.974z"/><path id="f" d="M802.603 2723.147v.943c.184-.327.429-.618.72-.855.174-.131.384-.206.602-.214a.515.515 0 0 1 .396.158c.108.115.163.27.15.428a.706.706 0 0 1-.142.468.443.443 0 0 1-.348.166.641.641 0 0 1-.412-.15 2.1 2.1 0 0 0-.206-.175.198.198 0 0 0-.103 0 .38.38 0 0 0-.246.095.896.896 0 0 0-.269.436 2.998 2.998 0 0 0-.142.95v1.213a.944.944 0 0 0 0 .325.38.38 0 0 0 .158.175c.114.041.235.062.356.063v.166H800.9v-.166a.475.475 0 0 0 .364-.143c.086-.213.119-.444.095-.673v-2.298c.02-.15.02-.302 0-.452a.325.325 0 0 0-.134-.182.657.657 0 0 0-.293-.08v-.198z"/><path id="g" d="M806.864 2726.735a2.17 2.17 0 0 1-1.362.674.792.792 0 0 1-.594-.238.793.793 0 0 1-.238-.578c.004-.335.155-.65.412-.864a8.013 8.013 0 0 1 1.774-.99v-.42c.01-.2-.005-.4-.048-.595a.5.5 0 0 0-.198-.214.61.61 0 0 0-.316-.087.792.792 0 0 0-.476.127.238.238 0 0 0-.118.19c.013.09.058.17.126.23.1.1.158.232.167.372 0 .14-.057.275-.159.372a.602.602 0 0 1-.427.151.673.673 0 0 1-.468-.166.523.523 0 0 1-.19-.397.92.92 0 0 1 .254-.618c.19-.208.434-.361.704-.443.304-.105.622-.159.943-.159.333-.017.663.072.942.254.203.13.358.321.444.546.052.283.065.57.04.856v1.585a1.634 1.634 0 0 0 0 .365.27.27 0 0 0 .07.11.198.198 0 0 0 .096 0c.079 0 .158-.055.237-.166l.135.111c-.12.188-.276.35-.46.476a.966.966 0 0 1-.538.15.863.863 0 0 1-.562-.166.793.793 0 0 1-.246-.507m.048-.286v-1.394c-.305.17-.574.4-.792.673a.888.888 0 0 0-.174.492.484.484 0 0 0 .15.356c.08.083.194.126.309.119a.792.792 0 0 0 .515-.246"/><path id="h" d="M810.47 2721.3v5.183a.975.975 0 0 0 .103.562.53.53 0 0 0 .396.135v.166h-2.249v-.166a.522.522 0 0 0 .412-.158c.078-.169.108-.355.087-.54v-4.318a.928.928 0 0 0-.103-.555.499.499 0 0 0-.396-.143v-.166z"/><path id="i" d="M813.012 2723.15v3.304a1.05 1.05 0 0 0 .103.562.562.562 0 0 0 .404.135v.166h-2.249v-.166a.53.53 0 0 0 .412-.158c.078-.169.108-.355.087-.54v-2.4a.991.991 0 0 0-.103-.571.546.546 0 0 0-.396-.135v-.198zm-.622-1.99a.642.642 0 0 1 .48.206.66.66 0 0 1 .204.483.676.676 0 0 1-.205.492.642.642 0 0 1-.48.198.665.665 0 0 1-.488-.197.676.676 0 0 1-.195-.493.652.652 0 0 1 .196-.483.666.666 0 0 1 .488-.206z"/><path id="j" d="M815.982 2726.735a2.188 2.188 0 0 1-1.37.674.792.792 0 0 1-.792-.793 1.14 1.14 0 0 1 .412-.863 7.823 7.823 0 0 1 1.742-1.015v-.42c.01-.2-.005-.399-.048-.594a.555.555 0 0 0-.198-.214.61.61 0 0 0-.316-.087.791.791 0 0 0-.483.127.246.246 0 0 0-.111.19c.013.09.058.17.127.23.098.1.157.232.166.372a.491.491 0 0 1-.166.372.57.57 0 0 1-.42.151.697.697 0 0 1-.475-.166.523.523 0 0 1-.19-.397.927.927 0 0 1 .26-.618c.192-.208.435-.361.706-.443.303-.105.621-.159.942-.159.333-.017.663.072.942.254.2.132.356.323.444.546.055.282.077.57.063.856v1.585a1.634 1.634 0 0 0 0 .365.25.25 0 0 0 .064.11.2.2 0 0 0 .103 0c.079 0 .158-.055.237-.166l.135.111c-.12.188-.276.35-.46.476a.973.973 0 0 1-.546.15.839.839 0 0 1-.554-.166.793.793 0 0 1-.246-.507m.024-.286v-1.394c-.305.17-.574.4-.792.673a.793.793 0 0 0-.174.492.507.507 0 0 0 .142.356c.085.082.2.125.317.119a.84.84 0 0 0 .515-.246"/><path id="k" d="M819.675 2723.147v.539c.176-.202.385-.374.618-.507.195-.105.412-.159.633-.159.245-.006.484.075.673.23.173.144.298.338.357.555.06.321.084.648.071.975v1.585c-.024.204.006.412.087.602.095.097.228.15.364.142v.167h-2.106v-.167a.412.412 0 0 0 .333-.19c.063-.177.087-.367.07-.554v-1.783a2.68 2.68 0 0 0 0-.642.396.396 0 0 0-.134-.214.348.348 0 0 0-.214-.072c-.253 0-.49.183-.712.547v2.235c-.018.202.012.406.087.594.083.093.2.147.324.15v.167h-2.106v-.166c.142 0 .277-.06.372-.167a1.15 1.15 0 0 0 .08-.578v-2.378c.019-.2-.011-.4-.088-.586a.522.522 0 0 0-.364-.15v-.175z"/><path id="l" d="M827.029 2724.59v1.727a1.88 1.88 0 0 0 .063.618.452.452 0 0 0 .206.198c.182.067.377.094.57.08v.166h-3.088v-.166c.191.016.383-.011.562-.08a.452.452 0 0 0 .214-.206c.052-.199.07-.405.055-.61v-3.962a1.959 1.959 0 0 0-.055-.618.404.404 0 0 0-.214-.198 1.33 1.33 0 0 0-.562-.08v-.166h2.803a6.33 6.33 0 0 1 1.584.15c.315.104.59.3.792.563.213.27.325.607.317.951.011.422-.162.827-.475 1.11a1.97 1.97 0 0 1-.863.412l1.457 2.044c.113.183.249.35.403.5a.798.798 0 0 0 .42.15v.167h-1.9l-1.87-2.75zm0-2.964v2.647h.253c.313.011.626-.026.927-.111a.943.943 0 0 0 .483-.412 1.48 1.48 0 0 0 .174-.793 1.173 1.173 0 0 0-1.362-1.355z"/><path id="m" d="M834.757 2725.12h-2.288a2.1 2.1 0 0 0 .443 1.308c.175.232.447.37.737.372a.792.792 0 0 0 .483-.15c.191-.145.35-.329.467-.54l.158.104c-.177.387-.45.722-.792.975a1.583 1.583 0 0 1-.95.285 1.583 1.583 0 0 1-1.402-.713 2.513 2.513 0 0 1-.38-1.419 2.378 2.378 0 0 1 .563-1.664c.328-.39.812-.617 1.322-.618.424.002.825.194 1.093.523.343.437.523.981.507 1.537zm-1.1-.3c.015-.33-.012-.66-.08-.983a.73.73 0 0 0-.237-.405.372.372 0 0 0-.254-.079.443.443 0 0 0-.38.222 1.974 1.974 0 0 0-.261 1.094v.15z"/><path id="n" d="M836.706 2723.147v.539c.176-.2.382-.371.61-.507a1.36 1.36 0 0 1 .634-.159c.486-.01.914.32 1.03.793.06.32.084.648.07.974v1.585c-.02.205.01.412.088.603a.49.49 0 0 0 .364.142v.167h-2.107v-.167a.428.428 0 0 0 .34-.19c.064-.178.089-.367.072-.555v-1.79c0-.216-.02-.431-.063-.643a.468.468 0 0 0-.143-.213.34.34 0 0 0-.206-.072c-.264 0-.501.182-.712.547v2.235c-.022.202.008.407.087.594a.424.424 0 0 0 .316.15v.167h-2.106v-.166a.522.522 0 0 0 .38-.167 1.3 1.3 0 0 0 .071-.578v-2.378c.024-.2-.006-.402-.087-.586a.507.507 0 0 0-.364-.15v-.175z"/><path id="o" d="M843.327 2725.12h-2.28c-.003.472.15.932.435 1.308.177.233.452.37.744.372a.792.792 0 0 0 .484-.15c.189-.148.348-.33.467-.54l.15.104a2.496 2.496 0 0 1-.744.975c-.28.19-.612.29-.95.285a1.583 1.583 0 0 1-1.402-.713 2.513 2.513 0 0 1-.388-1.419 2.378 2.378 0 0 1 .57-1.664c.326-.39.807-.615 1.315-.618.426 0 .83.192 1.1.523.34.438.517.982.5 1.537zm-1.093-.3c.016-.33-.01-.66-.079-.983a.737.737 0 0 0-.245-.405.34.34 0 0 0-.246-.079.428.428 0 0 0-.38.222 1.974 1.974 0 0 0-.261 1.094v.15z"/><path id="p" d="M847.697 2727.469l-1.14-3.051-1.117 3.05h-.237l-1.133-3.018a3.258 3.258 0 0 0-.42-.896.61.61 0 0 0-.34-.206v-.198h2.106v.166a.443.443 0 0 0-.293.064.174.174 0 0 0-.087.142c.032.156.08.307.143.452l.61 1.625.594-1.625-.048-.11a1.229 1.229 0 0 0-.23-.42.617.617 0 0 0-.316-.128v-.166h2.138v.166a.704.704 0 0 0-.317.064.19.19 0 0 0-.063.158c.02.151.063.298.126.436l.586 1.625.539-1.498c.055-.14.092-.287.11-.436a.317.317 0 0 0-.086-.253.506.506 0 0 0-.325-.096v-.166h1.235v.166a.515.515 0 0 0-.324.143c-.149.202-.256.43-.317.674l-1.164 3.304z"/><path id="q" d="M852.194 2726.735a2.181 2.181 0 0 1-1.37.673.792.792 0 0 1-.594-.237.793.793 0 0 1-.23-.579c.005-.332.152-.647.404-.864a8.131 8.131 0 0 1 1.782-.99v-.42c.014-.2-.005-.4-.056-.594a.483.483 0 0 0-.19-.214.641.641 0 0 0-.324-.088.792.792 0 0 0-.475.127.246.246 0 0 0-.111.19.396.396 0 0 0 .119.23c.103.097.166.23.174.373a.491.491 0 0 1-.167.372.57.57 0 0 1-.42.15.697.697 0 0 1-.474-.166.523.523 0 0 1-.19-.396.96.96 0 0 1 .253-.618c.196-.206.442-.358.713-.444.303-.104.621-.158.942-.158.33-.015.657.073.934.253.203.133.36.323.452.547.055.282.077.57.063.856v1.585a1.633 1.633 0 0 0 0 .364c.009.043.03.082.064.111a.224.224 0 0 0 .103 0c.079 0 .158-.055.237-.166l.135.11c-.123.19-.281.35-.468.476a.95.95 0 0 1-.538.15.839.839 0 0 1-.554-.166.793.793 0 0 1-.246-.507m.024-.285v-1.395a2.7 2.7 0 0 0-.792.674.793.793 0 0 0-.174.491.507.507 0 0 0 .142.357c.085.081.2.124.317.119a.863.863 0 0 0 .515-.246"/><path id="r" d="M855.737 2721.27v2.298c.29-.335.706-.533 1.148-.547.283.003.56.092.792.254.262.176.468.424.594.713.148.337.221.702.214 1.07.008.427-.084.85-.27 1.236-.16.346-.412.642-.728.856a1.907 1.907 0 0 1-1.038.285c-.205.005-.41-.03-.601-.103a1.694 1.694 0 0 1-.515-.348l-.69.451h-.15v-5.27a2.086 2.086 0 0 0 0-.443.34.34 0 0 0-.118-.159.704.704 0 0 0-.325-.071v-.167zm.055 2.726v1.854c-.013.24-.013.481 0 .722.026.16.1.31.214.427a.665.665 0 0 0 .792 0c.136-.143.229-.321.27-.515.09-.453.128-.916.11-1.379a2.458 2.458 0 0 0-.245-1.315.53.53 0 0 0-.468-.262.95.95 0 0 0-.728.436z"/><path id="s" d="M860.6 2721.3v5.183a.975.975 0 0 0 .103.562.53.53 0 0 0 .396.135v.166h-2.249v-.166a.507.507 0 0 0 .412-.158c.063-.064.087-.246.087-.54v-4.318a.928.928 0 0 0-.103-.555.499.499 0 0 0-.396-.143v-.166z"/><path id="t" d="M864.761 2725.12h-2.289c0 .473.156.933.444 1.308.174.232.446.37.736.372a.839.839 0 0 0 .491-.15c.19-.148.348-.33.468-.54l.15.104c-.177.387-.45.722-.792.975a1.734 1.734 0 0 1-2.376-.428 2.513 2.513 0 0 1-.38-1.419 2.378 2.378 0 0 1 .563-1.664c.329-.39.812-.616 1.322-.618.426.003.83.194 1.1.523.341.438.518.982.5 1.537zm-1.1-.3a4.457 4.457 0 0 0-.072-.983.792.792 0 0 0-.246-.405.356.356 0 0 0-.245-.079.428.428 0 0 0-.38.222 1.974 1.974 0 0 0-.261 1.094v.15z"/><path id="u" d="M786.268 2731.155v2.457h.119a.942.942 0 0 0 .792-.357c.2-.322.315-.69.333-1.07h.166v3.17h-.167a2.379 2.379 0 0 0-.221-.848.975.975 0 0 0-.404-.444 1.464 1.464 0 0 0-.657-.11v1.695c-.013.205.003.41.047.61.027.08.08.147.15.19.12.055.25.08.38.072h.357c.483.024.96-.116 1.354-.396.37-.307.63-.728.737-1.197h.182l-.27 1.926h-5.226v-.167h.206a.792.792 0 0 0 .42-.095.412.412 0 0 0 .182-.214c.043-.184.06-.374.047-.562v-3.947a3.005 3.005 0 0 0 0-.507.436.436 0 0 0-.166-.238.736.736 0 0 0-.46-.127h-.205v-.166h5.06v1.79h-.174a2.18 2.18 0 0 0-.364-.942c-.171-.204-.4-.35-.658-.42a3.49 3.49 0 0 0-.934-.08z"/><path id="v" d="M791.573 2732.658v.538a2.38 2.38 0 0 1 .61-.507c.195-.103.412-.158.633-.158.244-.01.483.07.673.222.172.148.296.344.356.562.061.321.085.648.072.975v1.585a1.3 1.3 0 0 0 .087.602.507.507 0 0 0 .364.143v.166h-2.106v-.166a.42.42 0 0 0 .332-.19c.064-.178.088-.367.071-.555v-1.791a2.807 2.807 0 0 0-.063-.634.38.38 0 0 0-.135-.206.34.34 0 0 0-.205-.071c-.264 0-.502.182-.713.546v2.235c-.022.202.008.407.087.595a.42.42 0 0 0 .317.15v.166h-2.083v-.166a.538.538 0 0 0 .38-.166c.067-.185.09-.383.071-.579v-2.377c.021-.2-.009-.402-.087-.587a.507.507 0 0 0-.364-.15v-.182z"/><path id="w" d="M798.187 2734.62h-2.28c-.003.472.15.932.435 1.308.177.233.452.37.744.372a.792.792 0 0 0 .484-.15c.189-.148.348-.33.467-.54l.15.104a2.496 2.496 0 0 1-.744.975c-.28.19-.612.29-.95.285a1.583 1.583 0 0 1-1.402-.713 2.45 2.45 0 0 1-.388-1.419 2.378 2.378 0 0 1 .57-1.664 1.726 1.726 0 0 1 1.283-.618c.426.002.83.194 1.1.523.341.438.518.982.5 1.537zm-1.093-.3c.016-.33-.01-.66-.079-.983a.792.792 0 0 0-.245-.405.356.356 0 0 0-.246-.079.428.428 0 0 0-.38.222 1.974 1.974 0 0 0-.261 1.094v.15z"/><path id="x" d="M800.173 2732.657v.943a3.17 3.17 0 0 1 .72-.856c.175-.13.385-.204.602-.214a.578.578 0 0 1 .404.15c.1.123.152.279.142.437a.706.706 0 0 1-.142.467.443.443 0 0 1-.348.167.641.641 0 0 1-.412-.151 2.099 2.099 0 0 0-.206-.174.198.198 0 0 0-.103 0 .364.364 0 0 0-.238.095.904.904 0 0 0-.277.436 2.998 2.998 0 0 0-.142.95v1.205a1.166 1.166 0 0 0 0 .325.36.36 0 0 0 .158.182c.114.042.235.063.356.064v.166h-2.217v-.166a.475.475 0 0 0 .364-.143 1.41 1.41 0 0 0 .095-.674v-2.306c.02-.15.02-.301 0-.451a.357.357 0 0 0-.126-.183.736.736 0 0 0-.301-.079v-.19z"/><path id="y" d="M804.897 2732.709h1.402v.491h-.792c.122.114.223.248.3.396a1.3 1.3 0 0 1-.135 1.292 1.703 1.703 0 0 1-.672.515 2.026 2.026 0 0 1-.792.182h-.53a.483.483 0 0 0-.341.135.428.428 0 0 0-.135.31.325.325 0 0 0 .127.269.641.641 0 0 0 .396.103h.792a2.85 2.85 0 0 1 1.29.206.943.943 0 0 1 .5.88c.004.248-.077.492-.23.689a1.37 1.37 0 0 1-.61.46 3.786 3.786 0 0 1-1.322.213 4.123 4.123 0 0 1-1.022-.11 1.37 1.37 0 0 1-.665-.302.547.547 0 0 1-.198-.404.53.53 0 0 1 .15-.372c.165-.137.36-.23.57-.27a.887.887 0 0 1-.577-.792.951.951 0 0 1 .237-.603c.205-.223.46-.394.745-.499a1.9 1.9 0 0 1-.864-.578 1.348 1.348 0 0 1 .238-1.847c.354-.309.813-.47 1.283-.451.293.003.584.062.855.174m-1.034 4.667a1.46 1.46 0 0 0-.604.08.412.412 0 0 0-.255.372.523.523 0 0 0 .263.412c.307.152.652.216.993.182.334.013.666-.04.978-.158a.515.515 0 0 0 .358-.468.253.253 0 0 0-.071-.182.645.645 0 0 0-.366-.19 9.753 9.753 0 0 0-1.296-.048m.25-4.627a.515.515 0 0 0-.435.26 2.14 2.14 0 0 0-.175 1.073c-.027.314.036.629.182.908a.5.5 0 0 0 .412.245.55.55 0 0 0 .452-.237 1.77 1.77 0 0 0 .174-.955 2.03 2.03 0 0 0-.198-1.081.46.46 0 0 0-.404-.213"/><path id="z" d="M808.436 2737.018l-1.346-3.09a3.646 3.646 0 0 0-.452-.856.713.713 0 0 0-.348-.222v-.19h2.217v.166a.483.483 0 0 0-.308.08.222.222 0 0 0-.088.182c.035.236.11.463.222.674l.713 1.632.483-1.268c.134-.296.223-.612.261-.935a.31.31 0 0 0-.11-.262.578.578 0 0 0-.38-.103v-.166h1.393v.166a.507.507 0 0 0-.333.159 3.9 3.9 0 0 0-.435.92l-1.188 3.09a7.055 7.055 0 0 1-.665 1.426.982.982 0 0 1-.792.373.792.792 0 0 1-.594-.214.642.642 0 0 1-.23-.508.57.57 0 0 1 .159-.427c.099-.11.24-.17.388-.167a.46.46 0 0 1 .356.143.628.628 0 0 1 .143.436.412.412 0 0 0 0 .221c.024.033.062.05.103.048a.34.34 0 0 0 .23-.127c.184-.26.323-.549.411-.856z"/><path id="A" d="M815.782 2735.134h-2.13l-.262.586a1.344 1.344 0 0 0-.118.483c-.01.154.07.3.206.373.187.072.385.11.586.11v.167h-2.004v-.166a.903.903 0 0 0 .53-.27c.218-.275.392-.582.515-.911l2.162-4.826h.087l2.178 4.96c.12.324.294.624.515.888a.705.705 0 0 0 .427.159v.166h-2.906v-.166h.119c.17.015.341-.02.49-.103a.238.238 0 0 0 .104-.198.619.619 0 0 0 0-.167 2.656 2.656 0 0 0-.135-.333zm-.15-.333l-.903-2.084-.927 2.084z"/><path id="B" d="M821.277 2732.709h1.418v.491h-.792c.121.114.223.248.3.396.07.157.105.328.104.5.01.284-.076.564-.246.792a1.647 1.647 0 0 1-.673.515 1.987 1.987 0 0 1-.792.182h-.538a.467.467 0 0 0-.333.135.428.428 0 0 0-.135.31.34.34 0 0 0 .12.269c.12.076.26.112.403.103h.792c.438-.034.877.037 1.283.206a.935.935 0 0 1 .507.88c0 .248-.08.49-.23.689a1.418 1.418 0 0 1-.61.46c-.425.148-.872.22-1.322.213a4.146 4.146 0 0 1-1.03-.11 1.306 1.306 0 0 1-.657-.302.563.563 0 0 1-.206-.404.547.547 0 0 1 .158-.372c.165-.137.36-.23.57-.27a.88.88 0 0 1-.578-.792.951.951 0 0 1 .238-.603c.203-.225.46-.396.744-.499a1.861 1.861 0 0 1-.863-.578 1.3 1.3 0 0 1-.269-.793c0-.408.183-.795.499-1.054.354-.309.813-.47 1.283-.451.293.002.584.06.855.174m-1.026 4.667a1.411 1.411 0 0 0-.604.08.404.404 0 0 0-.255.372.523.523 0 0 0 .263.412c.307.152.652.216.993.182.334.013.666-.04.978-.158a.523.523 0 0 0 .35-.468.245.245 0 0 0-.064-.182.669.669 0 0 0-.365-.19 9.832 9.832 0 0 0-1.296-.048m.258-4.627a.515.515 0 0 0-.436.26 2.117 2.117 0 0 0-.182 1.073c-.025.313.035.627.174.908.09.148.248.24.42.245a.531.531 0 0 0 .444-.237c.15-.295.212-.626.182-.955a2.015 2.015 0 0 0-.206-1.081.444.444 0 0 0-.396-.213"/><path id="C" d="M826.42 2734.62h-2.281a2.1 2.1 0 0 0 .444 1.308c.174.232.446.37.736.372a.792.792 0 0 0 .483-.15 1.72 1.72 0 0 0 .467-.54l.15.104a2.487 2.487 0 0 1-.744.975 1.583 1.583 0 0 1-.95.285 1.583 1.583 0 0 1-1.402-.713 2.513 2.513 0 0 1-.38-1.419 2.378 2.378 0 0 1 .563-1.664c.328-.39.812-.617 1.322-.618.424.002.825.194 1.093.523.34.438.517.982.499 1.537zm-1.093-.3c.015-.33-.011-.66-.08-.983a.792.792 0 0 0-.237-.405.372.372 0 0 0-.253-.079.443.443 0 0 0-.38.222 1.974 1.974 0 0 0-.262 1.094v.15z"/><path id="D" d="M828.368 2732.658v.538c.174-.202.38-.373.61-.507a1.36 1.36 0 0 1 .634-.158c.243-.01.482.07.673.222.172.148.296.344.356.562.061.321.085.648.071.975v1.585a1.3 1.3 0 0 0 .088.602.507.507 0 0 0 .364.143v.166h-2.138v-.166a.42.42 0 0 0 .332-.19 1.31 1.31 0 0 0 .072-.555v-1.791a2.808 2.808 0 0 0 0-.65.38.38 0 0 0-.135-.206.34.34 0 0 0-.206-.071c-.264 0-.501.182-.713.547v2.234a1.2 1.2 0 0 0 .087.595.42.42 0 0 0 .317.15v.167h-2.13v-.167a.538.538 0 0 0 .38-.166c.067-.185.09-.383.071-.579v-2.377c.021-.2-.009-.401-.087-.586a.507.507 0 0 0-.364-.151v-.166z"/><path id="E" d="M834.868 2735.779l.135.11c-.166.327-.418.6-.729.793a1.725 1.725 0 0 1-.934.27 1.583 1.583 0 0 1-1.33-.626 2.378 2.378 0 0 1-.5-1.514 2.569 2.569 0 0 1 .452-1.498 1.758 1.758 0 0 1 1.513-.792c.368-.018.73.097 1.021.325a.94.94 0 0 1 .388.729.531.531 0 0 1-.562.555.586.586 0 0 1-.436-.175.991.991 0 0 1-.206-.618.666.666 0 0 0-.134-.388.293.293 0 0 0-.238-.12.443.443 0 0 0-.364.23 1.871 1.871 0 0 0-.23 1.055c0 .382.062.762.182 1.125.097.306.275.58.515.792a.91.91 0 0 0 .578.19.839.839 0 0 0 .412-.102c.175-.105.332-.236.467-.389"/><path id="F" d="M837.156 2737.018l-1.346-3.09a3.646 3.646 0 0 0-.452-.856.713.713 0 0 0-.348-.222v-.19h2.217v.166a.483.483 0 0 0-.308.08.222.222 0 0 0-.088.182c.035.236.11.463.222.674l.713 1.632.483-1.268c.14-.288.236-.595.285-.911a.31.31 0 0 0-.11-.262.578.578 0 0 0-.381-.103v-.19h1.394v.166a.507.507 0 0 0-.333.159 3.9 3.9 0 0 0-.435.92l-1.188 3.09a7.055 7.055 0 0 1-.665 1.426.982.982 0 0 1-.792.373.792.792 0 0 1-.594-.214.642.642 0 0 1-.23-.508.57.57 0 0 1 .158-.427c.1-.11.241-.17.388-.167a.46.46 0 0 1 .357.143c.1.122.152.278.142.436a.412.412 0 0 0 .04.221.12.12 0 0 0 .103.048.34.34 0 0 0 .23-.127c.184-.26.324-.549.411-.856z"/><path id="G" d="M787.542 2711.634h-2.13l-.254.586a1.42 1.42 0 0 0-.126.483c-.01.154.07.3.206.373.19.072.39.11.593.11v.167h-2.011v-.166a.879.879 0 0 0 .538-.27c.212-.279.386-.585.515-.911l2.186-4.826h.08l2.177 4.96c.123.322.297.622.515.888a.744.744 0 0 0 .427.159v.166h-2.946v-.166h.12a.95.95 0 0 0 .498-.095.246.246 0 0 0 .095-.206.603.603 0 0 0 0-.167l-.174-.333zm-.15-.333l-.895-2.084-.927 2.084z"/><path id="H" d="M793.977 2709.19v3.265c-.023.203.01.408.095.594a.467.467 0 0 0 .356.143v.166h-1.695v-.562a2.202 2.202 0 0 1-.594.523 1.385 1.385 0 0 1-.673.158.997.997 0 0 1-.625-.214 1.03 1.03 0 0 1-.365-.507 3.647 3.647 0 0 1-.095-1.006v-1.657c.02-.2-.01-.4-.087-.586a.522.522 0 0 0-.364-.15v-.167h1.695v2.869a2.12 2.12 0 0 0 .047.578.357.357 0 0 0 .135.214c.06.042.132.064.206.064a.53.53 0 0 0 .293-.088c.17-.127.316-.286.427-.467v-2.267c.02-.2-.01-.4-.087-.586a.522.522 0 0 0-.364-.15v-.167z"/><path id="I" d="M797.357 2709.07l.064 1.426h-.15a2.124 2.124 0 0 0-.563-.863.91.91 0 0 0-.578-.238.427.427 0 0 0-.317.127.365.365 0 0 0-.04.515c.242.236.507.446.793.626.331.211.624.48.863.792.135.205.207.445.206.69 0 .238-.06.472-.175.681-.11.216-.28.396-.49.515a1.377 1.377 0 0 1-.697.175 2.374 2.374 0 0 1-.792-.183.673.673 0 0 0-.183-.047c-.095 0-.182.071-.245.222h-.143l-.07-1.498h.142c.105.321.29.61.538.84.18.173.416.277.665.293a.483.483 0 0 0 .349-.127.452.452 0 0 0 .134-.324.547.547 0 0 0-.134-.365c-.18-.18-.38-.339-.594-.475a4.752 4.752 0 0 1-.887-.722 1.3 1.3 0 0 1-.293-.792c.001-.321.12-.631.333-.872a1.22 1.22 0 0 1 .958-.388c.23 0 .455.058.657.166a.38.38 0 0 0 .198.064.198.198 0 0 0 .127 0 .943.943 0 0 0 .158-.19z"/><path id="J" d="M799.58 2707.67v1.522h.99v.443h-.99v2.568a1.958 1.958 0 0 0 0 .467.324.324 0 0 0 .15.183c.043.04.1.062.159.063.19 0 .372-.143.546-.436l.135.095a1.23 1.23 0 0 1-1.172.856 1.029 1.029 0 0 1-.674-.222.935.935 0 0 1-.348-.491 3.964 3.964 0 0 1-.048-.793v-2.29h-.538v-.158c.348-.24.667-.52.95-.832.27-.295.502-.622.69-.975z"/><path id="K" d="M802.603 2709.187v.943c.184-.327.429-.618.72-.855.174-.131.384-.206.602-.214a.515.515 0 0 1 .396.158.56.56 0 0 1 .158.46.706.706 0 0 1-.142.467.443.443 0 0 1-.349.167.641.641 0 0 1-.411-.15 2.099 2.099 0 0 0-.206-.175.198.198 0 0 0-.103 0 .38.38 0 0 0-.246.095.896.896 0 0 0-.269.436 2.998 2.998 0 0 0-.142.95v1.213a.944.944 0 0 0 0 .325.38.38 0 0 0 .158.174c.114.042.235.063.356.064v.166H800.9v-.166a.475.475 0 0 0 .364-.143 1.41 1.41 0 0 0 .095-.674v-2.361c.02-.15.02-.302 0-.452a.325.325 0 0 0-.134-.182.657.657 0 0 0-.293-.08v-.166z"/><path id="L" d="M806.864 2712.739a2.17 2.17 0 0 1-1.362.674.831.831 0 0 1-.594-.23.793.793 0 0 1-.238-.587 1.15 1.15 0 0 1 .412-.863 8.013 8.013 0 0 1 1.774-1.015v-.412a2.268 2.268 0 0 0-.048-.602.5.5 0 0 0-.198-.214.61.61 0 0 0-.316-.087.792.792 0 0 0-.475.127.238.238 0 0 0-.12.19c.012.09.058.172.127.23.1.1.158.232.167.372 0 .14-.057.275-.159.372a.602.602 0 0 1-.427.151.673.673 0 0 1-.467-.166.515.515 0 0 1-.19-.397.92.92 0 0 1 .253-.618c.191-.208.434-.361.705-.443.303-.105.621-.159.942-.159.333-.017.663.072.942.254.203.13.358.321.444.546.059.282.08.57.063.856v1.625a1.538 1.538 0 0 0 0 .356.222.222 0 0 0 .071.111.132.132 0 0 0 .096 0c.079 0 .158-.055.237-.166l.135.11a1.584 1.584 0 0 1-.46.476.966.966 0 0 1-.538.15.863.863 0 0 1-.562-.166.793.793 0 0 1-.246-.507m.024-.293v-1.395a2.598 2.598 0 0 0-.792.682.84.84 0 0 0-.174.483.484.484 0 0 0 .15.357.372.372 0 0 0 .31.127.84.84 0 0 0 .514-.254"/><path id="M" d="M810.47 2707.3v5.183a.975.975 0 0 0 .103.562.53.53 0 0 0 .396.135v.166h-2.249v-.166a.522.522 0 0 0 .412-.158c.078-.169.108-.355.087-.54v-4.31a.944.944 0 0 0-.103-.555.499.499 0 0 0-.396-.143v-.174z"/><path id="N" d="M813.012 2709.19v3.305a1.05 1.05 0 0 0 .103.563.562.562 0 0 0 .404.135v.166h-2.249v-.166a.53.53 0 0 0 .412-.159c.078-.168.108-.354.087-.539v-2.432a.991.991 0 0 0-.103-.571.546.546 0 0 0-.396-.135v-.166zm-.622-2.02a.642.642 0 0 1 .48.206.66.66 0 0 1 .204.483.676.676 0 0 1-.205.492.642.642 0 0 1-.48.198.665.665 0 0 1-.488-.197.676.676 0 0 1-.195-.493.652.652 0 0 1 .196-.483.666.666 0 0 1 .488-.206z"/><path id="O" d="M815.982 2712.735a2.188 2.188 0 0 1-1.37.674.792.792 0 0 1-.792-.793 1.15 1.15 0 0 1 .412-.863 7.823 7.823 0 0 1 1.782-1.015v-.412a2.268 2.268 0 0 0-.048-.602.555.555 0 0 0-.198-.214.61.61 0 0 0-.317-.087.791.791 0 0 0-.483.127.246.246 0 0 0-.11.19.35.35 0 0 0 .126.23c.099.1.158.232.166.372a.491.491 0 0 1-.166.372.57.57 0 0 1-.42.151.697.697 0 0 1-.475-.166.515.515 0 0 1-.19-.397.928.928 0 0 1 .262-.618c.19-.208.434-.361.704-.443.304-.105.622-.159.943-.159a1.58 1.58 0 0 1 .942.254c.2.132.355.323.444.546.054.282.076.57.063.856v1.625a1.539 1.539 0 0 0 0 .356c.01.043.031.082.063.111.034.012.07.012.103 0 .08 0 .159-.055.238-.166l.134.11a1.584 1.584 0 0 1-.459.476.974.974 0 0 1-.546.15.839.839 0 0 1-.555-.166.793.793 0 0 1-.245-.507m-.016-.325v-1.386c-.307.17-.577.4-.792.677a.785.785 0 0 0-.174.48c-.001.133.05.26.142.355a.405.405 0 0 0 .317.126.865.865 0 0 0 .515-.252"/><path id="P" d="M819.675 2709.187v.539c.176-.202.385-.374.618-.507.195-.105.412-.159.633-.159.245-.006.484.075.673.23.173.144.298.338.357.555.06.321.084.648.071.975v1.585c-.024.204.006.412.087.602.095.097.228.15.364.142v.167h-2.106v-.167a.412.412 0 0 0 .333-.19c.063-.177.087-.367.07-.554v-1.815a2.68 2.68 0 0 0 0-.642.396.396 0 0 0-.134-.214.348.348 0 0 0-.214-.071c-.253 0-.49.182-.712.546v2.235c-.018.202.012.406.087.594a.45.45 0 0 0 .324.151v.166h-2.106v-.166c.142 0 .277-.06.372-.166a1.15 1.15 0 0 0 .08-.579v-2.377c.019-.2-.011-.401-.088-.587a.522.522 0 0 0-.364-.15v-.167z"/><path id="Q" d="M830.743 2707.174v2.124h-.134a2.718 2.718 0 0 0-.895-1.323 2.145 2.145 0 0 0-1.307-.452 1.664 1.664 0 0 0-1.124.38 2.05 2.05 0 0 0-.634 1.062 5.18 5.18 0 0 0-.19 1.395 5.218 5.218 0 0 0 .206 1.53c.105.386.34.725.665.958.322.212.7.32 1.085.31.15-.001.298-.017.444-.048.16-.035.32-.08.475-.135v-1.26a1.134 1.134 0 0 0-.056-.46.42.42 0 0 0-.198-.19.791.791 0 0 0-.372-.079h-.158v-.166h2.938v.166c-.16-.004-.32.026-.467.087a.475.475 0 0 0-.198.23 1.078 1.078 0 0 0-.048.412v1.26a5.62 5.62 0 0 1-1.204.388c-.427.09-.862.135-1.298.135a3.72 3.72 0 0 1-1.426-.238 3.515 3.515 0 0 1-.998-.61 2.9 2.9 0 0 1-.68-.864 2.99 2.99 0 0 1-.317-1.37 3.123 3.123 0 0 1 .926-2.322 3.317 3.317 0 0 1 2.376-.943c.265-.002.53.022.792.07.216.054.427.123.633.207.168.074.343.13.523.166a.348.348 0 0 0 .23-.095.793.793 0 0 0 .198-.34z"/><path id="R" d="M833.606 2709.062a1.9 1.9 0 0 1 1.006.285c.313.185.561.462.712.792.164.356.247.742.246 1.134a2.38 2.38 0 0 1-.451 1.481c-.35.477-.915.747-1.505.722a1.71 1.71 0 0 1-1.45-.658 2.577 2.577 0 0 1 0-3.09c.339-.442.87-.69 1.426-.666m.011.317a.494.494 0 0 0-.385.173 1.15 1.15 0 0 0-.212.672c-.044.468-.062.938-.055 1.407 0 .296.02.592.063.885a.88.88 0 0 0 .204.482.517.517 0 0 0 .7.055.792.792 0 0 0 .227-.426c.074-.566.103-1.137.087-1.707a4.348 4.348 0 0 0-.079-1.036.839.839 0 0 0-.251-.41.454.454 0 0 0-.299-.095"/><path id="S" d="M837.588 2713.477l-1.433-3.225a3.48 3.48 0 0 0-.396-.745.57.57 0 0 0-.309-.15v-.167h2.289v.166a.412.412 0 0 0-.285.072.301.301 0 0 0-.111.23c.034.217.1.428.198.626l.689 1.584.546-1.347c.12-.25.2-.517.238-.792a.293.293 0 0 0-.103-.222.507.507 0 0 0-.357-.095v-.167h1.37v.167a.538.538 0 0 0-.324.143 2.845 2.845 0 0 0-.373.713l-1.393 3.265z"/><path id="T" d="M843.156 2711.12h-2.249c-.002.472.15.932.436 1.308a.94.94 0 0 0 .744.372.792.792 0 0 0 .483-.15c.19-.148.348-.33.467-.54l.15.104a2.487 2.487 0 0 1-.744.975c-.28.19-.611.29-.95.285a1.583 1.583 0 0 1-1.402-.713 2.45 2.45 0 0 1-.388-1.419 2.378 2.378 0 0 1 .563-1.664c.329-.39.812-.616 1.322-.618.426.002.83.194 1.1.523.341.438.518.982.5 1.537zm-1.093-.3c.011-.33-.015-.66-.08-.983a.792.792 0 0 0-.245-.405.356.356 0 0 0-.245-.079.428.428 0 0 0-.38.222 1.974 1.974 0 0 0-.261 1.094v.15z"/><path id="U" d="M845.172 2709.187v.943a3.17 3.17 0 0 1 .729-.856c.173-.132.384-.206.602-.214a.53.53 0 0 1 .546.587.706.706 0 0 1-.143.467.46.46 0 0 1-.356.167.617.617 0 0 1-.404-.15l-.206-.175a.222.222 0 0 0-.103 0 .38.38 0 0 0-.245.095.967.967 0 0 0-.277.436 2.997 2.997 0 0 0-.143.95v1.213a.943.943 0 0 0 0 .325.34.34 0 0 0 .159.174c.11.043.229.064.348.064v.166h-2.249v-.166a.49.49 0 0 0 .372-.143c.086-.213.119-.445.095-.673v-2.33a1.63 1.63 0 0 0 0-.452.357.357 0 0 0-.126-.182.697.697 0 0 0-.301-.08v-.166z"/><path id="V" d="M849.015 2709.187v.539c.176-.202.385-.374.617-.507.195-.105.413-.16.634-.159.245-.006.483.075.673.23.173.144.297.338.356.555.06.321.085.648.072.975v1.585c-.024.204.006.412.087.602a.467.467 0 0 0 .356.142v.167h-2.106v-.167a.428.428 0 0 0 .34-.19 1.29 1.29 0 0 0 .071-.554v-1.815a3.211 3.211 0 0 0 0-.642.396.396 0 0 0-.134-.214.348.348 0 0 0-.214-.071c-.253 0-.491.182-.713.546v2.235c-.017.202.013.406.087.594.082.095.2.15.325.151v.166h-2.146v-.166c.142 0 .277-.06.372-.166a1.15 1.15 0 0 0 .08-.579v-2.377c.019-.2-.011-.401-.088-.587a.538.538 0 0 0-.364-.15v-.167z"/><path id="W" d="M853.925 2709.189v.547c.182-.207.396-.383.633-.523a1.37 1.37 0 0 1 .642-.15c.238-.008.473.058.673.19.193.144.339.342.42.57.19-.232.421-.428.68-.579.208-.118.443-.18.682-.182.245-.015.489.055.689.198.17.127.294.305.356.507.08.319.115.647.103.975v1.704c-.026.202.004.408.087.594.094.096.222.15.356.15v.167H857.1v-.166a.467.467 0 0 0 .372-.19c.07-.176.098-.367.08-.555v-1.791a3.885 3.885 0 0 0-.04-.705.444.444 0 0 0-.143-.23.372.372 0 0 0-.221-.072.633.633 0 0 0-.388.143 1.458 1.458 0 0 0-.396.42v2.235c-.018.19.006.382.071.562a.451.451 0 0 0 .396.183v.166h-2.162v-.166c.1.005.199-.026.277-.087a.38.38 0 0 0 .135-.183 1.999 1.999 0 0 0 0-.475v-1.791a2.998 2.998 0 0 0-.048-.705.38.38 0 0 0-.372-.31.594.594 0 0 0-.325.096 2.02 2.02 0 0 0-.443.475v2.235c-.016.197.013.395.087.578.088.11.223.172.364.167v.166h-2.114v-.166a.515.515 0 0 0 .372-.167 1.3 1.3 0 0 0 .071-.578v-2.378c.021-.199-.006-.4-.079-.586a.538.538 0 0 0-.364-.15v-.167z"/><path id="X" d="M862.981 2711.12h-2.272c0 .473.155.933.443 1.308.175.232.447.37.737.372a.839.839 0 0 0 .49-.15c.19-.148.349-.33.468-.54l.15.104c-.177.387-.45.722-.792.975a1.583 1.583 0 0 1-.95.285 1.583 1.583 0 0 1-1.402-.713 2.513 2.513 0 0 1-.38-1.419 2.378 2.378 0 0 1 .563-1.664c.329-.39.812-.616 1.322-.618.424.002.825.194 1.093.523.348.435.528.98.507 1.537zm-1.11-.3a4.493 4.493 0 0 0-.071-.983.794.794 0 0 0-.243-.405.36.36 0 0 0-.252-.079.424.424 0 0 0-.369.222c-.196.33-.289.71-.267 1.094v.15z"/><path id="Y" d="M864.853 2709.187v.539a2.38 2.38 0 0 1 .61-.507c.195-.104.412-.158.633-.159.245-.006.483.075.673.23.173.144.297.338.356.555.06.321.085.648.072.975v1.585c-.02.204.01.411.087.602a.49.49 0 0 0 .364.142v.167h-2.106v-.167a.404.404 0 0 0 .332-.19 1.29 1.29 0 0 0 .071-.554v-1.815c.013-.215 0-.43-.04-.642a.396.396 0 0 0-.134-.214.34.34 0 0 0-.206-.071c-.258 0-.496.182-.712.546v2.235c-.022.202.008.407.087.594a.42.42 0 0 0 .316.151v.166h-2.106v-.166c.142 0 .277-.06.372-.166a1.15 1.15 0 0 0 .08-.579v-2.377c.019-.2-.011-.401-.088-.587a.507.507 0 0 0-.364-.15v-.167z"/><path id="Z" d="M869.451 2707.67v1.522h.99v.443h-.99v2.568a1.958 1.958 0 0 0 0 .467.326.326 0 0 0 .12.167c.042.04.099.062.158.063.19 0 .372-.142.546-.436l.135.095a1.228 1.228 0 0 1-1.172.856 1.029 1.029 0 0 1-.674-.222.935.935 0 0 1-.348-.49 3.964 3.964 0 0 1-.048-.793v-2.275h-.538v-.158c.348-.24.667-.52.95-.832.27-.295.502-.622.69-.975z"/><path id="ab" d="M970.383 2709.066l.056.141L977 2727h-4.234l-1.328-3.884h-5.869l-1.328 3.884h-4.145l6.673-17.934zm-3.485 10.25h3.22l-.975-2.855a36.003 36.003 0 0 1-.627-1.934c-.186.597-.419 1.278-.628 1.934zm-9.789-10.25V2727h-3.397l-6.343-9.743c-.226-.34-.467-.722-.692-1.079V2727h-3.8v-17.934h3.606l.065.1 5.965 9.303c.233.348.483.747.7 1.12v-10.523zm-18.2 0V2713h-8.372v2.49h4.83v3.883h-4.83v3.727h8.75v3.9h-12.638v-17.934zM917.06 2709c3.663 0 6.078 2.299 6.078 5.81 0 2.58-1.03 4.306-3.164 5.252l3.3 6.905h-4.418l-3.035-6.282h-3.027V2727h-3.856v-17.934zm-4.266 7.934h4.194c1.473 0 2.19-.697 2.19-2.025 0-1.328-.717-1.967-2.19-1.967h-4.194zm-13.507-7.868l.064.141 6.553 17.793h-4.235l-1.328-3.884h-5.868l-1.328 3.884H889l.129-.324 6.544-17.61zm-3.502 10.25h3.22l-.974-2.855c-.193-.606-.435-1.32-.62-1.934-.185.597-.419 1.278-.628 1.934z"/><linearGradient id="aa" x1="889" x2="977" y1="2718" y2="2718" gradientUnits="userSpaceOnUse"><stop offset="0" stop-color="#0c8648"/><stop offset=".5" stop-color="#00988a"/><stop offset="1" stop-color="#19becf"/></linearGradient></defs><use fill="#222221" xlink:href="#a" transform="translate(-734 -2697)"/><use fill="#222221" xlink:href="#b" transform="translate(-734 -2697)"/><use fill="#222221" xlink:href="#c" transform="translate(-734 -2697)"/><use fill="#222221" xlink:href="#d" transform="translate(-734 -2697)"/><use fill="#222221" xlink:href="#e" transform="translate(-734 -2697)"/><use fill="#222221" xlink:href="#f" transform="translate(-734 -2697)"/><use fill="#222221" xlink:href="#g" transform="translate(-734 -2697)"/><use fill="#222221" xlink:href="#h" transform="translate(-734 -2697)"/><use fill="#222221" xlink:href="#i" transform="translate(-734 -2697)"/><use fill="#222221" xlink:href="#j" transform="translate(-734 -2697)"/><use fill="#222221" xlink:href="#k" transform="translate(-734 -2697)"/><use fill="#222221" xlink:href="#l" transform="translate(-734 -2697)"/><use fill="#222221" xlink:href="#m" transform="translate(-734 -2697)"/><use fill="#222221" xlink:href="#n" transform="translate(-734 -2697)"/><use fill="#222221" xlink:href="#o" transform="translate(-734 -2697)"/><use fill="#222221" xlink:href="#p" transform="translate(-734 -2697)"/><use fill="#222221" xlink:href="#q" transform="translate(-734 -2697)"/><use fill="#222221" xlink:href="#r" transform="translate(-734 -2697)"/><use fill="#222221" xlink:href="#s" transform="translate(-734 -2697)"/><use fill="#222221" xlink:href="#t" transform="translate(-734 -2697)"/><use fill="#222221" xlink:href="#u" transform="translate(-734 -2697)"/><use fill="#222221" xlink:href="#v" transform="translate(-734 -2697)"/><use fill="#222221" xlink:href="#w" transform="translate(-734 -2697)"/><use fill="#222221" xlink:href="#x" transform="translate(-734 -2697)"/><use fill="#222221" xlink:href="#y" transform="translate(-734 -2697)"/><use fill="#222221" xlink:href="#z" transform="translate(-734 -2697)"/><use fill="#222221" xlink:href="#A" transform="translate(-734 -2697)"/><use fill="#222221" xlink:href="#B" transform="translate(-734 -2697)"/><use fill="#222221" xlink:href="#C" transform="translate(-734 -2697)"/><use fill="#222221" xlink:href="#D" transform="translate(-734 -2697)"/><use fill="#222221" xlink:href="#E" transform="translate(-734 -2697)"/><use fill="#222221" xlink:href="#F" transform="translate(-734 -2697)"/><use fill="#222221" xlink:href="#G" transform="translate(-734 -2697)"/><use fill="#222221" xlink:href="#H" transform="translate(-734 -2697)"/><use fill="#222221" xlink:href="#I" transform="translate(-734 -2697)"/><use fill="#222221" xlink:href="#J" transform="translate(-734 -2697)"/><use fill="#222221" xlink:href="#K" transform="translate(-734 -2697)"/><use fill="#222221" xlink:href="#L" transform="translate(-734 -2697)"/><use fill="#222221" xlink:href="#M" transform="translate(-734 -2697)"/><use fill="#222221" xlink:href="#N" transform="translate(-734 -2697)"/><use fill="#222221" xlink:href="#O" transform="translate(-734 -2697)"/><use fill="#222221" xlink:href="#P" transform="translate(-734 -2697)"/><use fill="#222221" xlink:href="#Q" transform="translate(-734 -2697)"/><use fill="#222221" xlink:href="#R" transform="translate(-734 -2697)"/><use fill="#222221" xlink:href="#S" transform="translate(-734 -2697)"/><use fill="#222221" xlink:href="#T" transform="translate(-734 -2697)"/><use fill="#222221" xlink:href="#U" transform="translate(-734 -2697)"/><use fill="#222221" xlink:href="#V" transform="translate(-734 -2697)"/><use fill="#222221" xlink:href="#W" transform="translate(-734 -2697)"/><use fill="#222221" xlink:href="#X" transform="translate(-734 -2697)"/><use fill="#222221" xlink:href="#Y" transform="translate(-734 -2697)"/><use fill="#222221" xlink:href="#Z" transform="translate(-734 -2697)"/><g><use fill="url(#aa)" xlink:href="#ab" transform="translate(-734 -2697)"/></g></svg>